<?xml version="1.0" encoding="utf-8" standalone="no"?>
<!DOCTYPE svg PUBLIC "-//W3C//DTD SVG 1.1//EN"
  "http://www.w3.org/Graphics/SVG/1.1/DTD/svg11.dtd">
<!-- Created with matplotlib (https://matplotlib.org/) -->
<svg height="432pt" version="1.1" viewBox="0 0 1296 432" width="1296pt" xmlns="http://www.w3.org/2000/svg" xmlns:xlink="http://www.w3.org/1999/xlink">
 <metadata>
  <rdf:RDF xmlns:cc="http://creativecommons.org/ns#" xmlns:dc="http://purl.org/dc/elements/1.1/" xmlns:rdf="http://www.w3.org/1999/02/22-rdf-syntax-ns#">
   <cc:Work>
    <dc:type rdf:resource="http://purl.org/dc/dcmitype/StillImage"/>
    <dc:date>2022-09-02T08:58:02.288399</dc:date>
    <dc:format>image/svg+xml</dc:format>
    <dc:creator>
     <cc:Agent>
      <dc:title>Matplotlib v3.3.4, https://matplotlib.org/</dc:title>
     </cc:Agent>
    </dc:creator>
   </cc:Work>
  </rdf:RDF>
 </metadata>
 <defs>
  <style type="text/css">*{stroke-linecap:butt;stroke-linejoin:round;}</style>
 </defs>
 <g id="figure_1">
  <g id="patch_1">
   <path d="M 0 432 
L 1296 432 
L 1296 0 
L 0 0 
z
" style="fill:none;"/>
  </g>
  <g id="axes_1">
   <g id="patch_2">
    <path d="M 54.2 390.04 
L 426.24 390.04 
L 426.24 25.44 
L 54.2 25.44 
z
" style="fill:none;"/>
   </g>
   <g id="PathCollection_1">
    <defs>
     <path d="M -3 0 
L 3 0 
M 0 3 
L 0 -3 
" id="m46ab50b485" style="stroke:#7f3c8d;stroke-width:1.5;"/>
    </defs>
    <g clip-path="url(#p6290a7e0c2)">
     <use style="fill:#7f3c8d;stroke:#7f3c8d;stroke-width:1.5;" x="72.054862" xlink:href="#m46ab50b485" y="351.900673"/>
     <use style="fill:#7f3c8d;stroke:#7f3c8d;stroke-width:1.5;" x="109.529776" xlink:href="#m46ab50b485" y="330.628462"/>
     <use style="fill:#7f3c8d;stroke:#7f3c8d;stroke-width:1.5;" x="147.00469" xlink:href="#m46ab50b485" y="310.457305"/>
     <use style="fill:#7f3c8d;stroke:#7f3c8d;stroke-width:1.5;" x="184.479605" xlink:href="#m46ab50b485" y="296.922744"/>
     <use style="fill:#7f3c8d;stroke:#7f3c8d;stroke-width:1.5;" x="221.954519" xlink:href="#m46ab50b485" y="262.009649"/>
     <use style="fill:#7f3c8d;stroke:#7f3c8d;stroke-width:1.5;" x="259.429433" xlink:href="#m46ab50b485" y="254.518979"/>
     <use style="fill:#7f3c8d;stroke:#7f3c8d;stroke-width:1.5;" x="296.904348" xlink:href="#m46ab50b485" y="182.354206"/>
     <use style="fill:#7f3c8d;stroke:#7f3c8d;stroke-width:1.5;" x="334.379262" xlink:href="#m46ab50b485" y="183.45444"/>
     <use style="fill:#7f3c8d;stroke:#7f3c8d;stroke-width:1.5;" x="371.854177" xlink:href="#m46ab50b485" y="176.834072"/>
     <use style="fill:#7f3c8d;stroke:#7f3c8d;stroke-width:1.5;" x="409.329091" xlink:href="#m46ab50b485" y="146.097083"/>
    </g>
   </g>
   <g id="PathCollection_2">
    <defs>
     <path d="M -3 0 
L 3 0 
M 0 3 
L 0 -3 
" id="mf261e7dfbd" style="stroke:#11a579;stroke-width:1.5;"/>
    </defs>
    <g clip-path="url(#p6290a7e0c2)">
     <use style="fill:#11a579;stroke:#11a579;stroke-width:1.5;" x="72.054862" xlink:href="#mf261e7dfbd" y="351.99363"/>
     <use style="fill:#11a579;stroke:#11a579;stroke-width:1.5;" x="109.529776" xlink:href="#mf261e7dfbd" y="331.358687"/>
     <use style="fill:#11a579;stroke:#11a579;stroke-width:1.5;" x="147.00469" xlink:href="#mf261e7dfbd" y="310.627683"/>
     <use style="fill:#11a579;stroke:#11a579;stroke-width:1.5;" x="184.479605" xlink:href="#mf261e7dfbd" y="280.046372"/>
     <use style="fill:#11a579;stroke:#11a579;stroke-width:1.5;" x="221.954519" xlink:href="#mf261e7dfbd" y="237.219654"/>
     <use style="fill:#11a579;stroke:#11a579;stroke-width:1.5;" x="259.429433" xlink:href="#mf261e7dfbd" y="198.41518"/>
     <use style="fill:#11a579;stroke:#11a579;stroke-width:1.5;" x="296.904348" xlink:href="#mf261e7dfbd" y="158.472918"/>
     <use style="fill:#11a579;stroke:#11a579;stroke-width:1.5;" x="334.379262" xlink:href="#mf261e7dfbd" y="119.573187"/>
     <use style="fill:#11a579;stroke:#11a579;stroke-width:1.5;" x="371.854177" xlink:href="#mf261e7dfbd" y="82.305651"/>
     <use style="fill:#11a579;stroke:#11a579;stroke-width:1.5;" x="409.329091" xlink:href="#mf261e7dfbd" y="42.012727"/>
    </g>
   </g>
   <g id="PathCollection_3">
    <defs>
     <path d="M -3 0 
L 3 0 
M 0 3 
L 0 -3 
" id="m6507050681" style="stroke:#3969ac;stroke-width:1.5;"/>
    </defs>
    <g clip-path="url(#p6290a7e0c2)">
     <use style="fill:#3969ac;stroke:#3969ac;stroke-width:1.5;" x="72.054862" xlink:href="#m6507050681" y="351.931937"/>
     <use style="fill:#3969ac;stroke:#3969ac;stroke-width:1.5;" x="109.529776" xlink:href="#m6507050681" y="333.954237"/>
     <use style="fill:#3969ac;stroke:#3969ac;stroke-width:1.5;" x="147.00469" xlink:href="#m6507050681" y="315.827678"/>
     <use style="fill:#3969ac;stroke:#3969ac;stroke-width:1.5;" x="184.479605" xlink:href="#m6507050681" y="296.443759"/>
     <use style="fill:#3969ac;stroke:#3969ac;stroke-width:1.5;" x="221.954519" xlink:href="#m6507050681" y="273.842991"/>
     <use style="fill:#3969ac;stroke:#3969ac;stroke-width:1.5;" x="259.429433" xlink:href="#m6507050681" y="253.087236"/>
     <use style="fill:#3969ac;stroke:#3969ac;stroke-width:1.5;" x="296.904348" xlink:href="#m6507050681" y="203.654416"/>
     <use style="fill:#3969ac;stroke:#3969ac;stroke-width:1.5;" x="334.379262" xlink:href="#m6507050681" y="179.812483"/>
     <use style="fill:#3969ac;stroke:#3969ac;stroke-width:1.5;" x="371.854177" xlink:href="#m6507050681" y="122.84298"/>
     <use style="fill:#3969ac;stroke:#3969ac;stroke-width:1.5;" x="409.329091" xlink:href="#m6507050681" y="94.824347"/>
    </g>
   </g>
   <g id="matplotlib.axis_1">
    <g id="xtick_1">
     <g id="line2d_1">
      <defs>
       <path d="M 0 0 
L 0 3.5 
" id="m2539b2239f" style="stroke:#000000;stroke-width:0.8;"/>
      </defs>
      <g>
       <use style="stroke:#000000;stroke-width:0.8;" x="71.110909" xlink:href="#m2539b2239f" y="390.04"/>
      </g>
     </g>
     <g id="text_1">
      <!-- 0 -->
      <g transform="translate(67.929659 404.638438)scale(0.1 -0.1)">
       <defs>
        <path d="M 31.78125 66.40625 
Q 24.171875 66.40625 20.328125 58.90625 
Q 16.5 51.421875 16.5 36.375 
Q 16.5 21.390625 20.328125 13.890625 
Q 24.171875 6.390625 31.78125 6.390625 
Q 39.453125 6.390625 43.28125 13.890625 
Q 47.125 21.390625 47.125 36.375 
Q 47.125 51.421875 43.28125 58.90625 
Q 39.453125 66.40625 31.78125 66.40625 
z
M 31.78125 74.21875 
Q 44.046875 74.21875 50.515625 64.515625 
Q 56.984375 54.828125 56.984375 36.375 
Q 56.984375 17.96875 50.515625 8.265625 
Q 44.046875 -1.421875 31.78125 -1.421875 
Q 19.53125 -1.421875 13.0625 8.265625 
Q 6.59375 17.96875 6.59375 36.375 
Q 6.59375 54.828125 13.0625 64.515625 
Q 19.53125 74.21875 31.78125 74.21875 
z
" id="DejaVuSans-48"/>
       </defs>
       <use xlink:href="#DejaVuSans-48"/>
      </g>
     </g>
    </g>
    <g id="xtick_2">
     <g id="line2d_2">
      <g>
       <use style="stroke:#000000;stroke-width:0.8;" x="118.308534" xlink:href="#m2539b2239f" y="390.04"/>
      </g>
     </g>
     <g id="text_2">
      <!-- 500 -->
      <g transform="translate(108.764784 404.638438)scale(0.1 -0.1)">
       <defs>
        <path d="M 10.796875 72.90625 
L 49.515625 72.90625 
L 49.515625 64.59375 
L 19.828125 64.59375 
L 19.828125 46.734375 
Q 21.96875 47.46875 24.109375 47.828125 
Q 26.265625 48.1875 28.421875 48.1875 
Q 40.625 48.1875 47.75 41.5 
Q 54.890625 34.8125 54.890625 23.390625 
Q 54.890625 11.625 47.5625 5.09375 
Q 40.234375 -1.421875 26.90625 -1.421875 
Q 22.3125 -1.421875 17.546875 -0.640625 
Q 12.796875 0.140625 7.71875 1.703125 
L 7.71875 11.625 
Q 12.109375 9.234375 16.796875 8.0625 
Q 21.484375 6.890625 26.703125 6.890625 
Q 35.15625 6.890625 40.078125 11.328125 
Q 45.015625 15.765625 45.015625 23.390625 
Q 45.015625 31 40.078125 35.4375 
Q 35.15625 39.890625 26.703125 39.890625 
Q 22.75 39.890625 18.8125 39.015625 
Q 14.890625 38.140625 10.796875 36.28125 
z
" id="DejaVuSans-53"/>
       </defs>
       <use xlink:href="#DejaVuSans-53"/>
       <use x="63.623047" xlink:href="#DejaVuSans-48"/>
       <use x="127.246094" xlink:href="#DejaVuSans-48"/>
      </g>
     </g>
    </g>
    <g id="xtick_3">
     <g id="line2d_3">
      <g>
       <use style="stroke:#000000;stroke-width:0.8;" x="165.506159" xlink:href="#m2539b2239f" y="390.04"/>
      </g>
     </g>
     <g id="text_3">
      <!-- 1000 -->
      <g transform="translate(152.781159 404.638438)scale(0.1 -0.1)">
       <defs>
        <path d="M 12.40625 8.296875 
L 28.515625 8.296875 
L 28.515625 63.921875 
L 10.984375 60.40625 
L 10.984375 69.390625 
L 28.421875 72.90625 
L 38.28125 72.90625 
L 38.28125 8.296875 
L 54.390625 8.296875 
L 54.390625 0 
L 12.40625 0 
z
" id="DejaVuSans-49"/>
       </defs>
       <use xlink:href="#DejaVuSans-49"/>
       <use x="63.623047" xlink:href="#DejaVuSans-48"/>
       <use x="127.246094" xlink:href="#DejaVuSans-48"/>
       <use x="190.869141" xlink:href="#DejaVuSans-48"/>
      </g>
     </g>
    </g>
    <g id="xtick_4">
     <g id="line2d_4">
      <g>
       <use style="stroke:#000000;stroke-width:0.8;" x="212.703785" xlink:href="#m2539b2239f" y="390.04"/>
      </g>
     </g>
     <g id="text_4">
      <!-- 1500 -->
      <g transform="translate(199.978785 404.638438)scale(0.1 -0.1)">
       <use xlink:href="#DejaVuSans-49"/>
       <use x="63.623047" xlink:href="#DejaVuSans-53"/>
       <use x="127.246094" xlink:href="#DejaVuSans-48"/>
       <use x="190.869141" xlink:href="#DejaVuSans-48"/>
      </g>
     </g>
    </g>
    <g id="xtick_5">
     <g id="line2d_5">
      <g>
       <use style="stroke:#000000;stroke-width:0.8;" x="259.90141" xlink:href="#m2539b2239f" y="390.04"/>
      </g>
     </g>
     <g id="text_5">
      <!-- 2000 -->
      <g transform="translate(247.17641 404.638438)scale(0.1 -0.1)">
       <defs>
        <path d="M 19.1875 8.296875 
L 53.609375 8.296875 
L 53.609375 0 
L 7.328125 0 
L 7.328125 8.296875 
Q 12.9375 14.109375 22.625 23.890625 
Q 32.328125 33.6875 34.8125 36.53125 
Q 39.546875 41.84375 41.421875 45.53125 
Q 43.3125 49.21875 43.3125 52.78125 
Q 43.3125 58.59375 39.234375 62.25 
Q 35.15625 65.921875 28.609375 65.921875 
Q 23.96875 65.921875 18.8125 64.3125 
Q 13.671875 62.703125 7.8125 59.421875 
L 7.8125 69.390625 
Q 13.765625 71.78125 18.9375 73 
Q 24.125 74.21875 28.421875 74.21875 
Q 39.75 74.21875 46.484375 68.546875 
Q 53.21875 62.890625 53.21875 53.421875 
Q 53.21875 48.921875 51.53125 44.890625 
Q 49.859375 40.875 45.40625 35.40625 
Q 44.1875 33.984375 37.640625 27.21875 
Q 31.109375 20.453125 19.1875 8.296875 
z
" id="DejaVuSans-50"/>
       </defs>
       <use xlink:href="#DejaVuSans-50"/>
       <use x="63.623047" xlink:href="#DejaVuSans-48"/>
       <use x="127.246094" xlink:href="#DejaVuSans-48"/>
       <use x="190.869141" xlink:href="#DejaVuSans-48"/>
      </g>
     </g>
    </g>
    <g id="xtick_6">
     <g id="line2d_6">
      <g>
       <use style="stroke:#000000;stroke-width:0.8;" x="307.099035" xlink:href="#m2539b2239f" y="390.04"/>
      </g>
     </g>
     <g id="text_6">
      <!-- 2500 -->
      <g transform="translate(294.374035 404.638438)scale(0.1 -0.1)">
       <use xlink:href="#DejaVuSans-50"/>
       <use x="63.623047" xlink:href="#DejaVuSans-53"/>
       <use x="127.246094" xlink:href="#DejaVuSans-48"/>
       <use x="190.869141" xlink:href="#DejaVuSans-48"/>
      </g>
     </g>
    </g>
    <g id="xtick_7">
     <g id="line2d_7">
      <g>
       <use style="stroke:#000000;stroke-width:0.8;" x="354.29666" xlink:href="#m2539b2239f" y="390.04"/>
      </g>
     </g>
     <g id="text_7">
      <!-- 3000 -->
      <g transform="translate(341.57166 404.638438)scale(0.1 -0.1)">
       <defs>
        <path d="M 40.578125 39.3125 
Q 47.65625 37.796875 51.625 33 
Q 55.609375 28.21875 55.609375 21.1875 
Q 55.609375 10.40625 48.1875 4.484375 
Q 40.765625 -1.421875 27.09375 -1.421875 
Q 22.515625 -1.421875 17.65625 -0.515625 
Q 12.796875 0.390625 7.625 2.203125 
L 7.625 11.71875 
Q 11.71875 9.328125 16.59375 8.109375 
Q 21.484375 6.890625 26.8125 6.890625 
Q 36.078125 6.890625 40.9375 10.546875 
Q 45.796875 14.203125 45.796875 21.1875 
Q 45.796875 27.640625 41.28125 31.265625 
Q 36.765625 34.90625 28.71875 34.90625 
L 20.21875 34.90625 
L 20.21875 43.015625 
L 29.109375 43.015625 
Q 36.375 43.015625 40.234375 45.921875 
Q 44.09375 48.828125 44.09375 54.296875 
Q 44.09375 59.90625 40.109375 62.90625 
Q 36.140625 65.921875 28.71875 65.921875 
Q 24.65625 65.921875 20.015625 65.03125 
Q 15.375 64.15625 9.8125 62.3125 
L 9.8125 71.09375 
Q 15.4375 72.65625 20.34375 73.4375 
Q 25.25 74.21875 29.59375 74.21875 
Q 40.828125 74.21875 47.359375 69.109375 
Q 53.90625 64.015625 53.90625 55.328125 
Q 53.90625 49.265625 50.4375 45.09375 
Q 46.96875 40.921875 40.578125 39.3125 
z
" id="DejaVuSans-51"/>
       </defs>
       <use xlink:href="#DejaVuSans-51"/>
       <use x="63.623047" xlink:href="#DejaVuSans-48"/>
       <use x="127.246094" xlink:href="#DejaVuSans-48"/>
       <use x="190.869141" xlink:href="#DejaVuSans-48"/>
      </g>
     </g>
    </g>
    <g id="xtick_8">
     <g id="line2d_8">
      <g>
       <use style="stroke:#000000;stroke-width:0.8;" x="401.494285" xlink:href="#m2539b2239f" y="390.04"/>
      </g>
     </g>
     <g id="text_8">
      <!-- 3500 -->
      <g transform="translate(388.769285 404.638438)scale(0.1 -0.1)">
       <use xlink:href="#DejaVuSans-51"/>
       <use x="63.623047" xlink:href="#DejaVuSans-53"/>
       <use x="127.246094" xlink:href="#DejaVuSans-48"/>
       <use x="190.869141" xlink:href="#DejaVuSans-48"/>
      </g>
     </g>
    </g>
    <g id="text_9">
     <!-- Number of sequences -->
     <g transform="translate(185.436406 418.316562)scale(0.1 -0.1)">
      <defs>
       <path d="M 9.8125 72.90625 
L 23.09375 72.90625 
L 55.421875 11.921875 
L 55.421875 72.90625 
L 64.984375 72.90625 
L 64.984375 0 
L 51.703125 0 
L 19.390625 60.984375 
L 19.390625 0 
L 9.8125 0 
z
" id="DejaVuSans-78"/>
       <path d="M 8.5 21.578125 
L 8.5 54.6875 
L 17.484375 54.6875 
L 17.484375 21.921875 
Q 17.484375 14.15625 20.5 10.265625 
Q 23.53125 6.390625 29.59375 6.390625 
Q 36.859375 6.390625 41.078125 11.03125 
Q 45.3125 15.671875 45.3125 23.6875 
L 45.3125 54.6875 
L 54.296875 54.6875 
L 54.296875 0 
L 45.3125 0 
L 45.3125 8.40625 
Q 42.046875 3.421875 37.71875 1 
Q 33.40625 -1.421875 27.6875 -1.421875 
Q 18.265625 -1.421875 13.375 4.4375 
Q 8.5 10.296875 8.5 21.578125 
z
M 31.109375 56 
z
" id="DejaVuSans-117"/>
       <path d="M 52 44.1875 
Q 55.375 50.25 60.0625 53.125 
Q 64.75 56 71.09375 56 
Q 79.640625 56 84.28125 50.015625 
Q 88.921875 44.046875 88.921875 33.015625 
L 88.921875 0 
L 79.890625 0 
L 79.890625 32.71875 
Q 79.890625 40.578125 77.09375 44.375 
Q 74.3125 48.1875 68.609375 48.1875 
Q 61.625 48.1875 57.5625 43.546875 
Q 53.515625 38.921875 53.515625 30.90625 
L 53.515625 0 
L 44.484375 0 
L 44.484375 32.71875 
Q 44.484375 40.625 41.703125 44.40625 
Q 38.921875 48.1875 33.109375 48.1875 
Q 26.21875 48.1875 22.15625 43.53125 
Q 18.109375 38.875 18.109375 30.90625 
L 18.109375 0 
L 9.078125 0 
L 9.078125 54.6875 
L 18.109375 54.6875 
L 18.109375 46.1875 
Q 21.1875 51.21875 25.484375 53.609375 
Q 29.78125 56 35.6875 56 
Q 41.65625 56 45.828125 52.96875 
Q 50 49.953125 52 44.1875 
z
" id="DejaVuSans-109"/>
       <path d="M 48.6875 27.296875 
Q 48.6875 37.203125 44.609375 42.84375 
Q 40.53125 48.484375 33.40625 48.484375 
Q 26.265625 48.484375 22.1875 42.84375 
Q 18.109375 37.203125 18.109375 27.296875 
Q 18.109375 17.390625 22.1875 11.75 
Q 26.265625 6.109375 33.40625 6.109375 
Q 40.53125 6.109375 44.609375 11.75 
Q 48.6875 17.390625 48.6875 27.296875 
z
M 18.109375 46.390625 
Q 20.953125 51.265625 25.265625 53.625 
Q 29.59375 56 35.59375 56 
Q 45.5625 56 51.78125 48.09375 
Q 58.015625 40.1875 58.015625 27.296875 
Q 58.015625 14.40625 51.78125 6.484375 
Q 45.5625 -1.421875 35.59375 -1.421875 
Q 29.59375 -1.421875 25.265625 0.953125 
Q 20.953125 3.328125 18.109375 8.203125 
L 18.109375 0 
L 9.078125 0 
L 9.078125 75.984375 
L 18.109375 75.984375 
z
" id="DejaVuSans-98"/>
       <path d="M 56.203125 29.59375 
L 56.203125 25.203125 
L 14.890625 25.203125 
Q 15.484375 15.921875 20.484375 11.0625 
Q 25.484375 6.203125 34.421875 6.203125 
Q 39.59375 6.203125 44.453125 7.46875 
Q 49.3125 8.734375 54.109375 11.28125 
L 54.109375 2.78125 
Q 49.265625 0.734375 44.1875 -0.34375 
Q 39.109375 -1.421875 33.890625 -1.421875 
Q 20.796875 -1.421875 13.15625 6.1875 
Q 5.515625 13.8125 5.515625 26.8125 
Q 5.515625 40.234375 12.765625 48.109375 
Q 20.015625 56 32.328125 56 
Q 43.359375 56 49.78125 48.890625 
Q 56.203125 41.796875 56.203125 29.59375 
z
M 47.21875 32.234375 
Q 47.125 39.59375 43.09375 43.984375 
Q 39.0625 48.390625 32.421875 48.390625 
Q 24.90625 48.390625 20.390625 44.140625 
Q 15.875 39.890625 15.1875 32.171875 
z
" id="DejaVuSans-101"/>
       <path d="M 41.109375 46.296875 
Q 39.59375 47.171875 37.8125 47.578125 
Q 36.03125 48 33.890625 48 
Q 26.265625 48 22.1875 43.046875 
Q 18.109375 38.09375 18.109375 28.8125 
L 18.109375 0 
L 9.078125 0 
L 9.078125 54.6875 
L 18.109375 54.6875 
L 18.109375 46.1875 
Q 20.953125 51.171875 25.484375 53.578125 
Q 30.03125 56 36.53125 56 
Q 37.453125 56 38.578125 55.875 
Q 39.703125 55.765625 41.0625 55.515625 
z
" id="DejaVuSans-114"/>
       <path id="DejaVuSans-32"/>
       <path d="M 30.609375 48.390625 
Q 23.390625 48.390625 19.1875 42.75 
Q 14.984375 37.109375 14.984375 27.296875 
Q 14.984375 17.484375 19.15625 11.84375 
Q 23.34375 6.203125 30.609375 6.203125 
Q 37.796875 6.203125 41.984375 11.859375 
Q 46.1875 17.53125 46.1875 27.296875 
Q 46.1875 37.015625 41.984375 42.703125 
Q 37.796875 48.390625 30.609375 48.390625 
z
M 30.609375 56 
Q 42.328125 56 49.015625 48.375 
Q 55.71875 40.765625 55.71875 27.296875 
Q 55.71875 13.875 49.015625 6.21875 
Q 42.328125 -1.421875 30.609375 -1.421875 
Q 18.84375 -1.421875 12.171875 6.21875 
Q 5.515625 13.875 5.515625 27.296875 
Q 5.515625 40.765625 12.171875 48.375 
Q 18.84375 56 30.609375 56 
z
" id="DejaVuSans-111"/>
       <path d="M 37.109375 75.984375 
L 37.109375 68.5 
L 28.515625 68.5 
Q 23.6875 68.5 21.796875 66.546875 
Q 19.921875 64.59375 19.921875 59.515625 
L 19.921875 54.6875 
L 34.71875 54.6875 
L 34.71875 47.703125 
L 19.921875 47.703125 
L 19.921875 0 
L 10.890625 0 
L 10.890625 47.703125 
L 2.296875 47.703125 
L 2.296875 54.6875 
L 10.890625 54.6875 
L 10.890625 58.5 
Q 10.890625 67.625 15.140625 71.796875 
Q 19.390625 75.984375 28.609375 75.984375 
z
" id="DejaVuSans-102"/>
       <path d="M 44.28125 53.078125 
L 44.28125 44.578125 
Q 40.484375 46.53125 36.375 47.5 
Q 32.28125 48.484375 27.875 48.484375 
Q 21.1875 48.484375 17.84375 46.4375 
Q 14.5 44.390625 14.5 40.28125 
Q 14.5 37.15625 16.890625 35.375 
Q 19.28125 33.59375 26.515625 31.984375 
L 29.59375 31.296875 
Q 39.15625 29.25 43.1875 25.515625 
Q 47.21875 21.78125 47.21875 15.09375 
Q 47.21875 7.46875 41.1875 3.015625 
Q 35.15625 -1.421875 24.609375 -1.421875 
Q 20.21875 -1.421875 15.453125 -0.5625 
Q 10.6875 0.296875 5.421875 2 
L 5.421875 11.28125 
Q 10.40625 8.6875 15.234375 7.390625 
Q 20.0625 6.109375 24.8125 6.109375 
Q 31.15625 6.109375 34.5625 8.28125 
Q 37.984375 10.453125 37.984375 14.40625 
Q 37.984375 18.0625 35.515625 20.015625 
Q 33.0625 21.96875 24.703125 23.78125 
L 21.578125 24.515625 
Q 13.234375 26.265625 9.515625 29.90625 
Q 5.8125 33.546875 5.8125 39.890625 
Q 5.8125 47.609375 11.28125 51.796875 
Q 16.75 56 26.8125 56 
Q 31.78125 56 36.171875 55.265625 
Q 40.578125 54.546875 44.28125 53.078125 
z
" id="DejaVuSans-115"/>
       <path d="M 14.796875 27.296875 
Q 14.796875 17.390625 18.875 11.75 
Q 22.953125 6.109375 30.078125 6.109375 
Q 37.203125 6.109375 41.296875 11.75 
Q 45.40625 17.390625 45.40625 27.296875 
Q 45.40625 37.203125 41.296875 42.84375 
Q 37.203125 48.484375 30.078125 48.484375 
Q 22.953125 48.484375 18.875 42.84375 
Q 14.796875 37.203125 14.796875 27.296875 
z
M 45.40625 8.203125 
Q 42.578125 3.328125 38.25 0.953125 
Q 33.9375 -1.421875 27.875 -1.421875 
Q 17.96875 -1.421875 11.734375 6.484375 
Q 5.515625 14.40625 5.515625 27.296875 
Q 5.515625 40.1875 11.734375 48.09375 
Q 17.96875 56 27.875 56 
Q 33.9375 56 38.25 53.625 
Q 42.578125 51.265625 45.40625 46.390625 
L 45.40625 54.6875 
L 54.390625 54.6875 
L 54.390625 -20.796875 
L 45.40625 -20.796875 
z
" id="DejaVuSans-113"/>
       <path d="M 54.890625 33.015625 
L 54.890625 0 
L 45.90625 0 
L 45.90625 32.71875 
Q 45.90625 40.484375 42.875 44.328125 
Q 39.84375 48.1875 33.796875 48.1875 
Q 26.515625 48.1875 22.3125 43.546875 
Q 18.109375 38.921875 18.109375 30.90625 
L 18.109375 0 
L 9.078125 0 
L 9.078125 54.6875 
L 18.109375 54.6875 
L 18.109375 46.1875 
Q 21.34375 51.125 25.703125 53.5625 
Q 30.078125 56 35.796875 56 
Q 45.21875 56 50.046875 50.171875 
Q 54.890625 44.34375 54.890625 33.015625 
z
" id="DejaVuSans-110"/>
       <path d="M 48.78125 52.59375 
L 48.78125 44.1875 
Q 44.96875 46.296875 41.140625 47.34375 
Q 37.3125 48.390625 33.40625 48.390625 
Q 24.65625 48.390625 19.8125 42.84375 
Q 14.984375 37.3125 14.984375 27.296875 
Q 14.984375 17.28125 19.8125 11.734375 
Q 24.65625 6.203125 33.40625 6.203125 
Q 37.3125 6.203125 41.140625 7.25 
Q 44.96875 8.296875 48.78125 10.40625 
L 48.78125 2.09375 
Q 45.015625 0.34375 40.984375 -0.53125 
Q 36.96875 -1.421875 32.421875 -1.421875 
Q 20.0625 -1.421875 12.78125 6.34375 
Q 5.515625 14.109375 5.515625 27.296875 
Q 5.515625 40.671875 12.859375 48.328125 
Q 20.21875 56 33.015625 56 
Q 37.15625 56 41.109375 55.140625 
Q 45.0625 54.296875 48.78125 52.59375 
z
" id="DejaVuSans-99"/>
      </defs>
      <use xlink:href="#DejaVuSans-78"/>
      <use x="74.804688" xlink:href="#DejaVuSans-117"/>
      <use x="138.183594" xlink:href="#DejaVuSans-109"/>
      <use x="235.595703" xlink:href="#DejaVuSans-98"/>
      <use x="299.072266" xlink:href="#DejaVuSans-101"/>
      <use x="360.595703" xlink:href="#DejaVuSans-114"/>
      <use x="401.708984" xlink:href="#DejaVuSans-32"/>
      <use x="433.496094" xlink:href="#DejaVuSans-111"/>
      <use x="494.677734" xlink:href="#DejaVuSans-102"/>
      <use x="529.882812" xlink:href="#DejaVuSans-32"/>
      <use x="561.669922" xlink:href="#DejaVuSans-115"/>
      <use x="613.769531" xlink:href="#DejaVuSans-101"/>
      <use x="675.292969" xlink:href="#DejaVuSans-113"/>
      <use x="738.769531" xlink:href="#DejaVuSans-117"/>
      <use x="802.148438" xlink:href="#DejaVuSans-101"/>
      <use x="863.671875" xlink:href="#DejaVuSans-110"/>
      <use x="927.050781" xlink:href="#DejaVuSans-99"/>
      <use x="982.03125" xlink:href="#DejaVuSans-101"/>
      <use x="1043.554688" xlink:href="#DejaVuSans-115"/>
     </g>
    </g>
   </g>
   <g id="matplotlib.axis_2">
    <g id="ytick_1">
     <g id="line2d_9">
      <defs>
       <path d="M 0 0 
L -3.5 0 
" id="m9bdd858f41" style="stroke:#000000;stroke-width:0.8;"/>
      </defs>
      <g>
       <use style="stroke:#000000;stroke-width:0.8;" x="54.2" xlink:href="#m9bdd858f41" y="352.389291"/>
      </g>
     </g>
     <g id="text_10">
      <!-- 0.00 -->
      <g transform="translate(24.934375 356.188509)scale(0.1 -0.1)">
       <defs>
        <path d="M 10.6875 12.40625 
L 21 12.40625 
L 21 0 
L 10.6875 0 
z
" id="DejaVuSans-46"/>
       </defs>
       <use xlink:href="#DejaVuSans-48"/>
       <use x="63.623047" xlink:href="#DejaVuSans-46"/>
       <use x="95.410156" xlink:href="#DejaVuSans-48"/>
       <use x="159.033203" xlink:href="#DejaVuSans-48"/>
      </g>
     </g>
    </g>
    <g id="ytick_2">
     <g id="line2d_10">
      <g>
       <use style="stroke:#000000;stroke-width:0.8;" x="54.2" xlink:href="#m9bdd858f41" y="301.798194"/>
      </g>
     </g>
     <g id="text_11">
      <!-- 0.25 -->
      <g transform="translate(24.934375 305.597413)scale(0.1 -0.1)">
       <use xlink:href="#DejaVuSans-48"/>
       <use x="63.623047" xlink:href="#DejaVuSans-46"/>
       <use x="95.410156" xlink:href="#DejaVuSans-50"/>
       <use x="159.033203" xlink:href="#DejaVuSans-53"/>
      </g>
     </g>
    </g>
    <g id="ytick_3">
     <g id="line2d_11">
      <g>
       <use style="stroke:#000000;stroke-width:0.8;" x="54.2" xlink:href="#m9bdd858f41" y="251.207098"/>
      </g>
     </g>
     <g id="text_12">
      <!-- 0.50 -->
      <g transform="translate(24.934375 255.006317)scale(0.1 -0.1)">
       <use xlink:href="#DejaVuSans-48"/>
       <use x="63.623047" xlink:href="#DejaVuSans-46"/>
       <use x="95.410156" xlink:href="#DejaVuSans-53"/>
       <use x="159.033203" xlink:href="#DejaVuSans-48"/>
      </g>
     </g>
    </g>
    <g id="ytick_4">
     <g id="line2d_12">
      <g>
       <use style="stroke:#000000;stroke-width:0.8;" x="54.2" xlink:href="#m9bdd858f41" y="200.616002"/>
      </g>
     </g>
     <g id="text_13">
      <!-- 0.75 -->
      <g transform="translate(24.934375 204.415221)scale(0.1 -0.1)">
       <defs>
        <path d="M 8.203125 72.90625 
L 55.078125 72.90625 
L 55.078125 68.703125 
L 28.609375 0 
L 18.3125 0 
L 43.21875 64.59375 
L 8.203125 64.59375 
z
" id="DejaVuSans-55"/>
       </defs>
       <use xlink:href="#DejaVuSans-48"/>
       <use x="63.623047" xlink:href="#DejaVuSans-46"/>
       <use x="95.410156" xlink:href="#DejaVuSans-55"/>
       <use x="159.033203" xlink:href="#DejaVuSans-53"/>
      </g>
     </g>
    </g>
    <g id="ytick_5">
     <g id="line2d_13">
      <g>
       <use style="stroke:#000000;stroke-width:0.8;" x="54.2" xlink:href="#m9bdd858f41" y="150.024906"/>
      </g>
     </g>
     <g id="text_14">
      <!-- 1.00 -->
      <g transform="translate(24.934375 153.824125)scale(0.1 -0.1)">
       <use xlink:href="#DejaVuSans-49"/>
       <use x="63.623047" xlink:href="#DejaVuSans-46"/>
       <use x="95.410156" xlink:href="#DejaVuSans-48"/>
       <use x="159.033203" xlink:href="#DejaVuSans-48"/>
      </g>
     </g>
    </g>
    <g id="ytick_6">
     <g id="line2d_14">
      <g>
       <use style="stroke:#000000;stroke-width:0.8;" x="54.2" xlink:href="#m9bdd858f41" y="99.43381"/>
      </g>
     </g>
     <g id="text_15">
      <!-- 1.25 -->
      <g transform="translate(24.934375 103.233029)scale(0.1 -0.1)">
       <use xlink:href="#DejaVuSans-49"/>
       <use x="63.623047" xlink:href="#DejaVuSans-46"/>
       <use x="95.410156" xlink:href="#DejaVuSans-50"/>
       <use x="159.033203" xlink:href="#DejaVuSans-53"/>
      </g>
     </g>
    </g>
    <g id="ytick_7">
     <g id="line2d_15">
      <g>
       <use style="stroke:#000000;stroke-width:0.8;" x="54.2" xlink:href="#m9bdd858f41" y="48.842714"/>
      </g>
     </g>
     <g id="text_16">
      <!-- 1.50 -->
      <g transform="translate(24.934375 52.641932)scale(0.1 -0.1)">
       <use xlink:href="#DejaVuSans-49"/>
       <use x="63.623047" xlink:href="#DejaVuSans-46"/>
       <use x="95.410156" xlink:href="#DejaVuSans-53"/>
       <use x="159.033203" xlink:href="#DejaVuSans-48"/>
      </g>
     </g>
    </g>
    <g id="text_17">
     <!-- Time (s) -->
     <g transform="translate(18.854687 228.068906)rotate(-90)scale(0.1 -0.1)">
      <defs>
       <path d="M -0.296875 72.90625 
L 61.375 72.90625 
L 61.375 64.59375 
L 35.5 64.59375 
L 35.5 0 
L 25.59375 0 
L 25.59375 64.59375 
L -0.296875 64.59375 
z
" id="DejaVuSans-84"/>
       <path d="M 9.421875 54.6875 
L 18.40625 54.6875 
L 18.40625 0 
L 9.421875 0 
z
M 9.421875 75.984375 
L 18.40625 75.984375 
L 18.40625 64.59375 
L 9.421875 64.59375 
z
" id="DejaVuSans-105"/>
       <path d="M 31 75.875 
Q 24.46875 64.65625 21.28125 53.65625 
Q 18.109375 42.671875 18.109375 31.390625 
Q 18.109375 20.125 21.3125 9.0625 
Q 24.515625 -2 31 -13.1875 
L 23.1875 -13.1875 
Q 15.875 -1.703125 12.234375 9.375 
Q 8.59375 20.453125 8.59375 31.390625 
Q 8.59375 42.28125 12.203125 53.3125 
Q 15.828125 64.359375 23.1875 75.875 
z
" id="DejaVuSans-40"/>
       <path d="M 8.015625 75.875 
L 15.828125 75.875 
Q 23.140625 64.359375 26.78125 53.3125 
Q 30.421875 42.28125 30.421875 31.390625 
Q 30.421875 20.453125 26.78125 9.375 
Q 23.140625 -1.703125 15.828125 -13.1875 
L 8.015625 -13.1875 
Q 14.5 -2 17.703125 9.0625 
Q 20.90625 20.125 20.90625 31.390625 
Q 20.90625 42.671875 17.703125 53.65625 
Q 14.5 64.65625 8.015625 75.875 
z
" id="DejaVuSans-41"/>
      </defs>
      <use xlink:href="#DejaVuSans-84"/>
      <use x="57.958984" xlink:href="#DejaVuSans-105"/>
      <use x="85.742188" xlink:href="#DejaVuSans-109"/>
      <use x="183.154297" xlink:href="#DejaVuSans-101"/>
      <use x="244.677734" xlink:href="#DejaVuSans-32"/>
      <use x="276.464844" xlink:href="#DejaVuSans-40"/>
      <use x="315.478516" xlink:href="#DejaVuSans-115"/>
      <use x="367.578125" xlink:href="#DejaVuSans-41"/>
     </g>
    </g>
   </g>
   <g id="line2d_16">
    <path clip-path="url(#p6290a7e0c2)" d="M 71.110909 356.888253 
L 409.329091 142.744935 
" style="fill:none;stroke:#7f3c8d;stroke-dasharray:5.55,2.4;stroke-dashoffset:0;stroke-width:1.5;"/>
   </g>
   <g id="line2d_17">
    <path clip-path="url(#p6290a7e0c2)" d="M 71.110909 372.79286 
L 409.329091 50.51175 
" style="fill:none;stroke:#11a579;stroke-dasharray:5.55,2.4;stroke-dashoffset:0;stroke-width:1.5;"/>
   </g>
   <g id="line2d_18">
    <path clip-path="url(#p6290a7e0c2)" d="M 71.110909 373.467273 
L 409.329091 112.505474 
" style="fill:none;stroke:#3969ac;stroke-dasharray:5.55,2.4;stroke-dashoffset:0;stroke-width:1.5;"/>
   </g>
   <g id="patch_3">
    <path d="M 54.2 390.04 
L 54.2 25.44 
" style="fill:none;stroke:#000000;stroke-linecap:square;stroke-linejoin:miter;stroke-width:0.8;"/>
   </g>
   <g id="patch_4">
    <path d="M 426.24 390.04 
L 426.24 25.44 
" style="fill:none;stroke:#000000;stroke-linecap:square;stroke-linejoin:miter;stroke-width:0.8;"/>
   </g>
   <g id="patch_5">
    <path d="M 54.2 390.04 
L 426.24 390.04 
" style="fill:none;stroke:#000000;stroke-linecap:square;stroke-linejoin:miter;stroke-width:0.8;"/>
   </g>
   <g id="patch_6">
    <path d="M 54.2 25.44 
L 426.24 25.44 
" style="fill:none;stroke:#000000;stroke-linecap:square;stroke-linejoin:miter;stroke-width:0.8;"/>
   </g>
   <g id="text_18">
    <!-- Gaps -->
    <g transform="translate(224.959375 19.44)scale(0.12 -0.12)">
     <defs>
      <path d="M 59.515625 10.40625 
L 59.515625 29.984375 
L 43.40625 29.984375 
L 43.40625 38.09375 
L 69.28125 38.09375 
L 69.28125 6.78125 
Q 63.578125 2.734375 56.6875 0.65625 
Q 49.8125 -1.421875 42 -1.421875 
Q 24.90625 -1.421875 15.25 8.5625 
Q 5.609375 18.5625 5.609375 36.375 
Q 5.609375 54.25 15.25 64.234375 
Q 24.90625 74.21875 42 74.21875 
Q 49.125 74.21875 55.546875 72.453125 
Q 61.96875 70.703125 67.390625 67.28125 
L 67.390625 56.78125 
Q 61.921875 61.421875 55.765625 63.765625 
Q 49.609375 66.109375 42.828125 66.109375 
Q 29.4375 66.109375 22.71875 58.640625 
Q 16.015625 51.171875 16.015625 36.375 
Q 16.015625 21.625 22.71875 14.15625 
Q 29.4375 6.6875 42.828125 6.6875 
Q 48.046875 6.6875 52.140625 7.59375 
Q 56.25 8.5 59.515625 10.40625 
z
" id="DejaVuSans-71"/>
      <path d="M 34.28125 27.484375 
Q 23.390625 27.484375 19.1875 25 
Q 14.984375 22.515625 14.984375 16.5 
Q 14.984375 11.71875 18.140625 8.90625 
Q 21.296875 6.109375 26.703125 6.109375 
Q 34.1875 6.109375 38.703125 11.40625 
Q 43.21875 16.703125 43.21875 25.484375 
L 43.21875 27.484375 
z
M 52.203125 31.203125 
L 52.203125 0 
L 43.21875 0 
L 43.21875 8.296875 
Q 40.140625 3.328125 35.546875 0.953125 
Q 30.953125 -1.421875 24.3125 -1.421875 
Q 15.921875 -1.421875 10.953125 3.296875 
Q 6 8.015625 6 15.921875 
Q 6 25.140625 12.171875 29.828125 
Q 18.359375 34.515625 30.609375 34.515625 
L 43.21875 34.515625 
L 43.21875 35.40625 
Q 43.21875 41.609375 39.140625 45 
Q 35.0625 48.390625 27.6875 48.390625 
Q 23 48.390625 18.546875 47.265625 
Q 14.109375 46.140625 10.015625 43.890625 
L 10.015625 52.203125 
Q 14.9375 54.109375 19.578125 55.046875 
Q 24.21875 56 28.609375 56 
Q 40.484375 56 46.34375 49.84375 
Q 52.203125 43.703125 52.203125 31.203125 
z
" id="DejaVuSans-97"/>
      <path d="M 18.109375 8.203125 
L 18.109375 -20.796875 
L 9.078125 -20.796875 
L 9.078125 54.6875 
L 18.109375 54.6875 
L 18.109375 46.390625 
Q 20.953125 51.265625 25.265625 53.625 
Q 29.59375 56 35.59375 56 
Q 45.5625 56 51.78125 48.09375 
Q 58.015625 40.1875 58.015625 27.296875 
Q 58.015625 14.40625 51.78125 6.484375 
Q 45.5625 -1.421875 35.59375 -1.421875 
Q 29.59375 -1.421875 25.265625 0.953125 
Q 20.953125 3.328125 18.109375 8.203125 
z
M 48.6875 27.296875 
Q 48.6875 37.203125 44.609375 42.84375 
Q 40.53125 48.484375 33.40625 48.484375 
Q 26.265625 48.484375 22.1875 42.84375 
Q 18.109375 37.203125 18.109375 27.296875 
Q 18.109375 17.390625 22.1875 11.75 
Q 26.265625 6.109375 33.40625 6.109375 
Q 40.53125 6.109375 44.609375 11.75 
Q 48.6875 17.390625 48.6875 27.296875 
z
" id="DejaVuSans-112"/>
     </defs>
     <use xlink:href="#DejaVuSans-71"/>
     <use x="77.490234" xlink:href="#DejaVuSans-97"/>
     <use x="138.769531" xlink:href="#DejaVuSans-112"/>
     <use x="202.246094" xlink:href="#DejaVuSans-115"/>
    </g>
   </g>
   <g id="legend_1">
    <g id="patch_7">
     <path d="M 61.2 77.474375 
L 190.926562 77.474375 
Q 192.926562 77.474375 192.926562 75.474375 
L 192.926562 32.44 
Q 192.926562 30.44 190.926562 30.44 
L 61.2 30.44 
Q 59.2 30.44 59.2 32.44 
L 59.2 75.474375 
Q 59.2 77.474375 61.2 77.474375 
z
" style="fill:#ffffff;opacity:0.8;stroke:#cccccc;stroke-linejoin:miter;"/>
    </g>
    <g id="PathCollection_4">
     <g>
      <use style="fill:#7f3c8d;stroke:#7f3c8d;stroke-width:1.5;" x="73.2" xlink:href="#m46ab50b485" y="39.413437"/>
     </g>
    </g>
    <g id="text_19">
     <!-- Generic (R²=0.966) -->
     <g transform="translate(91.2 42.038437)scale(0.1 -0.1)">
      <defs>
       <path d="M 44.390625 34.1875 
Q 47.5625 33.109375 50.5625 29.59375 
Q 53.5625 26.078125 56.59375 19.921875 
L 66.609375 0 
L 56 0 
L 46.6875 18.703125 
Q 43.0625 26.03125 39.671875 28.421875 
Q 36.28125 30.8125 30.421875 30.8125 
L 19.671875 30.8125 
L 19.671875 0 
L 9.8125 0 
L 9.8125 72.90625 
L 32.078125 72.90625 
Q 44.578125 72.90625 50.734375 67.671875 
Q 56.890625 62.453125 56.890625 51.90625 
Q 56.890625 45.015625 53.6875 40.46875 
Q 50.484375 35.9375 44.390625 34.1875 
z
M 19.671875 64.796875 
L 19.671875 38.921875 
L 32.078125 38.921875 
Q 39.203125 38.921875 42.84375 42.21875 
Q 46.484375 45.515625 46.484375 51.90625 
Q 46.484375 58.296875 42.84375 61.546875 
Q 39.203125 64.796875 32.078125 64.796875 
z
" id="DejaVuSans-82"/>
       <path d="M 13.09375 38.1875 
L 33.796875 38.1875 
L 33.796875 32.625 
L 4.59375 32.625 
L 4.59375 37.984375 
Q 6.25 39.5 9.328125 42.234375 
Q 26.125 57.125 26.125 61.71875 
Q 26.125 64.9375 23.578125 66.90625 
Q 21.046875 68.890625 16.890625 68.890625 
Q 14.359375 68.890625 11.375 68.03125 
Q 8.40625 67.1875 4.890625 65.484375 
L 4.890625 71.484375 
Q 8.640625 72.859375 11.890625 73.53125 
Q 15.140625 74.21875 17.921875 74.21875 
Q 25 74.21875 29.25 71 
Q 33.5 67.78125 33.5 62.5 
Q 33.5 55.71875 17.328125 41.84375 
Q 14.59375 39.5 13.09375 38.1875 
z
" id="DejaVuSans-178"/>
       <path d="M 10.59375 45.40625 
L 73.1875 45.40625 
L 73.1875 37.203125 
L 10.59375 37.203125 
z
M 10.59375 25.484375 
L 73.1875 25.484375 
L 73.1875 17.1875 
L 10.59375 17.1875 
z
" id="DejaVuSans-61"/>
       <path d="M 10.984375 1.515625 
L 10.984375 10.5 
Q 14.703125 8.734375 18.5 7.8125 
Q 22.3125 6.890625 25.984375 6.890625 
Q 35.75 6.890625 40.890625 13.453125 
Q 46.046875 20.015625 46.78125 33.40625 
Q 43.953125 29.203125 39.59375 26.953125 
Q 35.25 24.703125 29.984375 24.703125 
Q 19.046875 24.703125 12.671875 31.3125 
Q 6.296875 37.9375 6.296875 49.421875 
Q 6.296875 60.640625 12.9375 67.421875 
Q 19.578125 74.21875 30.609375 74.21875 
Q 43.265625 74.21875 49.921875 64.515625 
Q 56.59375 54.828125 56.59375 36.375 
Q 56.59375 19.140625 48.40625 8.859375 
Q 40.234375 -1.421875 26.421875 -1.421875 
Q 22.703125 -1.421875 18.890625 -0.6875 
Q 15.09375 0.046875 10.984375 1.515625 
z
M 30.609375 32.421875 
Q 37.25 32.421875 41.125 36.953125 
Q 45.015625 41.5 45.015625 49.421875 
Q 45.015625 57.28125 41.125 61.84375 
Q 37.25 66.40625 30.609375 66.40625 
Q 23.96875 66.40625 20.09375 61.84375 
Q 16.21875 57.28125 16.21875 49.421875 
Q 16.21875 41.5 20.09375 36.953125 
Q 23.96875 32.421875 30.609375 32.421875 
z
" id="DejaVuSans-57"/>
       <path d="M 33.015625 40.375 
Q 26.375 40.375 22.484375 35.828125 
Q 18.609375 31.296875 18.609375 23.390625 
Q 18.609375 15.53125 22.484375 10.953125 
Q 26.375 6.390625 33.015625 6.390625 
Q 39.65625 6.390625 43.53125 10.953125 
Q 47.40625 15.53125 47.40625 23.390625 
Q 47.40625 31.296875 43.53125 35.828125 
Q 39.65625 40.375 33.015625 40.375 
z
M 52.59375 71.296875 
L 52.59375 62.3125 
Q 48.875 64.0625 45.09375 64.984375 
Q 41.3125 65.921875 37.59375 65.921875 
Q 27.828125 65.921875 22.671875 59.328125 
Q 17.53125 52.734375 16.796875 39.40625 
Q 19.671875 43.65625 24.015625 45.921875 
Q 28.375 48.1875 33.59375 48.1875 
Q 44.578125 48.1875 50.953125 41.515625 
Q 57.328125 34.859375 57.328125 23.390625 
Q 57.328125 12.15625 50.6875 5.359375 
Q 44.046875 -1.421875 33.015625 -1.421875 
Q 20.359375 -1.421875 13.671875 8.265625 
Q 6.984375 17.96875 6.984375 36.375 
Q 6.984375 53.65625 15.1875 63.9375 
Q 23.390625 74.21875 37.203125 74.21875 
Q 40.921875 74.21875 44.703125 73.484375 
Q 48.484375 72.75 52.59375 71.296875 
z
" id="DejaVuSans-54"/>
      </defs>
      <use xlink:href="#DejaVuSans-71"/>
      <use x="77.490234" xlink:href="#DejaVuSans-101"/>
      <use x="139.013672" xlink:href="#DejaVuSans-110"/>
      <use x="202.392578" xlink:href="#DejaVuSans-101"/>
      <use x="263.916016" xlink:href="#DejaVuSans-114"/>
      <use x="305.029297" xlink:href="#DejaVuSans-105"/>
      <use x="332.8125" xlink:href="#DejaVuSans-99"/>
      <use x="387.792969" xlink:href="#DejaVuSans-32"/>
      <use x="419.580078" xlink:href="#DejaVuSans-40"/>
      <use x="458.59375" xlink:href="#DejaVuSans-82"/>
      <use x="528.076172" xlink:href="#DejaVuSans-178"/>
      <use x="568.164062" xlink:href="#DejaVuSans-61"/>
      <use x="651.953125" xlink:href="#DejaVuSans-48"/>
      <use x="715.576172" xlink:href="#DejaVuSans-46"/>
      <use x="747.363281" xlink:href="#DejaVuSans-57"/>
      <use x="810.986328" xlink:href="#DejaVuSans-54"/>
      <use x="874.609375" xlink:href="#DejaVuSans-54"/>
      <use x="938.232422" xlink:href="#DejaVuSans-41"/>
     </g>
    </g>
    <g id="PathCollection_5">
     <g>
      <use style="fill:#11a579;stroke:#11a579;stroke-width:1.5;" x="73.2" xlink:href="#mf261e7dfbd" y="54.091563"/>
     </g>
    </g>
    <g id="text_20">
     <!-- NEON (R²=0.991) -->
     <g transform="translate(91.2 56.716563)scale(0.1 -0.1)">
      <defs>
       <path d="M 9.8125 72.90625 
L 55.90625 72.90625 
L 55.90625 64.59375 
L 19.671875 64.59375 
L 19.671875 43.015625 
L 54.390625 43.015625 
L 54.390625 34.71875 
L 19.671875 34.71875 
L 19.671875 8.296875 
L 56.78125 8.296875 
L 56.78125 0 
L 9.8125 0 
z
" id="DejaVuSans-69"/>
       <path d="M 39.40625 66.21875 
Q 28.65625 66.21875 22.328125 58.203125 
Q 16.015625 50.203125 16.015625 36.375 
Q 16.015625 22.609375 22.328125 14.59375 
Q 28.65625 6.59375 39.40625 6.59375 
Q 50.140625 6.59375 56.421875 14.59375 
Q 62.703125 22.609375 62.703125 36.375 
Q 62.703125 50.203125 56.421875 58.203125 
Q 50.140625 66.21875 39.40625 66.21875 
z
M 39.40625 74.21875 
Q 54.734375 74.21875 63.90625 63.9375 
Q 73.09375 53.65625 73.09375 36.375 
Q 73.09375 19.140625 63.90625 8.859375 
Q 54.734375 -1.421875 39.40625 -1.421875 
Q 24.03125 -1.421875 14.8125 8.828125 
Q 5.609375 19.09375 5.609375 36.375 
Q 5.609375 53.65625 14.8125 63.9375 
Q 24.03125 74.21875 39.40625 74.21875 
z
" id="DejaVuSans-79"/>
      </defs>
      <use xlink:href="#DejaVuSans-78"/>
      <use x="74.804688" xlink:href="#DejaVuSans-69"/>
      <use x="137.988281" xlink:href="#DejaVuSans-79"/>
      <use x="216.699219" xlink:href="#DejaVuSans-78"/>
      <use x="291.503906" xlink:href="#DejaVuSans-32"/>
      <use x="323.291016" xlink:href="#DejaVuSans-40"/>
      <use x="362.304688" xlink:href="#DejaVuSans-82"/>
      <use x="431.787109" xlink:href="#DejaVuSans-178"/>
      <use x="471.875" xlink:href="#DejaVuSans-61"/>
      <use x="555.664062" xlink:href="#DejaVuSans-48"/>
      <use x="619.287109" xlink:href="#DejaVuSans-46"/>
      <use x="651.074219" xlink:href="#DejaVuSans-57"/>
      <use x="714.697266" xlink:href="#DejaVuSans-57"/>
      <use x="778.320312" xlink:href="#DejaVuSans-49"/>
      <use x="841.943359" xlink:href="#DejaVuSans-41"/>
     </g>
    </g>
    <g id="PathCollection_6">
     <g>
      <use style="fill:#3969ac;stroke:#3969ac;stroke-width:1.5;" x="73.2" xlink:href="#m6507050681" y="68.769687"/>
     </g>
    </g>
    <g id="text_21">
     <!-- None (R²=0.968) -->
     <g transform="translate(91.2 71.394687)scale(0.1 -0.1)">
      <defs>
       <path d="M 31.78125 34.625 
Q 24.75 34.625 20.71875 30.859375 
Q 16.703125 27.09375 16.703125 20.515625 
Q 16.703125 13.921875 20.71875 10.15625 
Q 24.75 6.390625 31.78125 6.390625 
Q 38.8125 6.390625 42.859375 10.171875 
Q 46.921875 13.96875 46.921875 20.515625 
Q 46.921875 27.09375 42.890625 30.859375 
Q 38.875 34.625 31.78125 34.625 
z
M 21.921875 38.8125 
Q 15.578125 40.375 12.03125 44.71875 
Q 8.5 49.078125 8.5 55.328125 
Q 8.5 64.0625 14.71875 69.140625 
Q 20.953125 74.21875 31.78125 74.21875 
Q 42.671875 74.21875 48.875 69.140625 
Q 55.078125 64.0625 55.078125 55.328125 
Q 55.078125 49.078125 51.53125 44.71875 
Q 48 40.375 41.703125 38.8125 
Q 48.828125 37.15625 52.796875 32.3125 
Q 56.78125 27.484375 56.78125 20.515625 
Q 56.78125 9.90625 50.3125 4.234375 
Q 43.84375 -1.421875 31.78125 -1.421875 
Q 19.734375 -1.421875 13.25 4.234375 
Q 6.78125 9.90625 6.78125 20.515625 
Q 6.78125 27.484375 10.78125 32.3125 
Q 14.796875 37.15625 21.921875 38.8125 
z
M 18.3125 54.390625 
Q 18.3125 48.734375 21.84375 45.5625 
Q 25.390625 42.390625 31.78125 42.390625 
Q 38.140625 42.390625 41.71875 45.5625 
Q 45.3125 48.734375 45.3125 54.390625 
Q 45.3125 60.0625 41.71875 63.234375 
Q 38.140625 66.40625 31.78125 66.40625 
Q 25.390625 66.40625 21.84375 63.234375 
Q 18.3125 60.0625 18.3125 54.390625 
z
" id="DejaVuSans-56"/>
      </defs>
      <use xlink:href="#DejaVuSans-78"/>
      <use x="74.804688" xlink:href="#DejaVuSans-111"/>
      <use x="135.986328" xlink:href="#DejaVuSans-110"/>
      <use x="199.365234" xlink:href="#DejaVuSans-101"/>
      <use x="260.888672" xlink:href="#DejaVuSans-32"/>
      <use x="292.675781" xlink:href="#DejaVuSans-40"/>
      <use x="331.689453" xlink:href="#DejaVuSans-82"/>
      <use x="401.171875" xlink:href="#DejaVuSans-178"/>
      <use x="441.259766" xlink:href="#DejaVuSans-61"/>
      <use x="525.048828" xlink:href="#DejaVuSans-48"/>
      <use x="588.671875" xlink:href="#DejaVuSans-46"/>
      <use x="620.458984" xlink:href="#DejaVuSans-57"/>
      <use x="684.082031" xlink:href="#DejaVuSans-54"/>
      <use x="747.705078" xlink:href="#DejaVuSans-56"/>
      <use x="811.328125" xlink:href="#DejaVuSans-41"/>
     </g>
    </g>
   </g>
  </g>
  <g id="axes_2">
   <g id="patch_8">
    <path d="M 483.68 390.04 
L 855.72 390.04 
L 855.72 25.44 
L 483.68 25.44 
z
" style="fill:none;"/>
   </g>
   <g id="PathCollection_7">
    <g clip-path="url(#p4763a7dfcc)">
     <use style="fill:#7f3c8d;stroke:#7f3c8d;stroke-width:1.5;" x="501.534862" xlink:href="#m46ab50b485" y="372.646126"/>
     <use style="fill:#7f3c8d;stroke:#7f3c8d;stroke-width:1.5;" x="539.009776" xlink:href="#m46ab50b485" y="370.331304"/>
     <use style="fill:#7f3c8d;stroke:#7f3c8d;stroke-width:1.5;" x="576.48469" xlink:href="#m46ab50b485" y="363.715532"/>
     <use style="fill:#7f3c8d;stroke:#7f3c8d;stroke-width:1.5;" x="613.959605" xlink:href="#m46ab50b485" y="352.763161"/>
     <use style="fill:#7f3c8d;stroke:#7f3c8d;stroke-width:1.5;" x="651.434519" xlink:href="#m46ab50b485" y="337.600823"/>
     <use style="fill:#7f3c8d;stroke:#7f3c8d;stroke-width:1.5;" x="688.909433" xlink:href="#m46ab50b485" y="318.051092"/>
     <use style="fill:#7f3c8d;stroke:#7f3c8d;stroke-width:1.5;" x="726.384348" xlink:href="#m46ab50b485" y="294.870582"/>
     <use style="fill:#7f3c8d;stroke:#7f3c8d;stroke-width:1.5;" x="763.859262" xlink:href="#m46ab50b485" y="266.342846"/>
     <use style="fill:#7f3c8d;stroke:#7f3c8d;stroke-width:1.5;" x="801.334177" xlink:href="#m46ab50b485" y="234.084993"/>
     <use style="fill:#7f3c8d;stroke:#7f3c8d;stroke-width:1.5;" x="838.809091" xlink:href="#m46ab50b485" y="197.308375"/>
    </g>
   </g>
   <g id="PathCollection_8">
    <g clip-path="url(#p4763a7dfcc)">
     <use style="fill:#11a579;stroke:#11a579;stroke-width:1.5;" x="501.534862" xlink:href="#mf261e7dfbd" y="372.647113"/>
     <use style="fill:#11a579;stroke:#11a579;stroke-width:1.5;" x="539.009776" xlink:href="#mf261e7dfbd" y="372.25172"/>
     <use style="fill:#11a579;stroke:#11a579;stroke-width:1.5;" x="576.48469" xlink:href="#mf261e7dfbd" y="371.203411"/>
     <use style="fill:#11a579;stroke:#11a579;stroke-width:1.5;" x="613.959605" xlink:href="#mf261e7dfbd" y="369.503621"/>
     <use style="fill:#11a579;stroke:#11a579;stroke-width:1.5;" x="651.434519" xlink:href="#mf261e7dfbd" y="367.165167"/>
     <use style="fill:#11a579;stroke:#11a579;stroke-width:1.5;" x="688.909433" xlink:href="#mf261e7dfbd" y="364.102163"/>
     <use style="fill:#11a579;stroke:#11a579;stroke-width:1.5;" x="726.384348" xlink:href="#mf261e7dfbd" y="360.493277"/>
     <use style="fill:#11a579;stroke:#11a579;stroke-width:1.5;" x="763.859262" xlink:href="#mf261e7dfbd" y="356.143158"/>
     <use style="fill:#11a579;stroke:#11a579;stroke-width:1.5;" x="801.334177" xlink:href="#mf261e7dfbd" y="351.281987"/>
     <use style="fill:#11a579;stroke:#11a579;stroke-width:1.5;" x="838.809091" xlink:href="#mf261e7dfbd" y="345.518407"/>
    </g>
   </g>
   <g id="PathCollection_9">
    <g clip-path="url(#p4763a7dfcc)">
     <use style="fill:#3969ac;stroke:#3969ac;stroke-width:1.5;" x="501.534862" xlink:href="#m6507050681" y="372.646353"/>
     <use style="fill:#3969ac;stroke:#3969ac;stroke-width:1.5;" x="539.009776" xlink:href="#m6507050681" y="368.882933"/>
     <use style="fill:#3969ac;stroke:#3969ac;stroke-width:1.5;" x="576.48469" xlink:href="#m6507050681" y="356.548791"/>
     <use style="fill:#3969ac;stroke:#3969ac;stroke-width:1.5;" x="613.959605" xlink:href="#m6507050681" y="334.859792"/>
     <use style="fill:#3969ac;stroke:#3969ac;stroke-width:1.5;" x="651.434519" xlink:href="#m6507050681" y="305.701944"/>
     <use style="fill:#3969ac;stroke:#3969ac;stroke-width:1.5;" x="688.909433" xlink:href="#m6507050681" y="268.402673"/>
     <use style="fill:#3969ac;stroke:#3969ac;stroke-width:1.5;" x="726.384348" xlink:href="#m6507050681" y="222.782916"/>
     <use style="fill:#3969ac;stroke:#3969ac;stroke-width:1.5;" x="763.859262" xlink:href="#m6507050681" y="172.596934"/>
     <use style="fill:#3969ac;stroke:#3969ac;stroke-width:1.5;" x="801.334177" xlink:href="#m6507050681" y="110.656507"/>
     <use style="fill:#3969ac;stroke:#3969ac;stroke-width:1.5;" x="838.809091" xlink:href="#m6507050681" y="42.048285"/>
    </g>
   </g>
   <g id="matplotlib.axis_3">
    <g id="xtick_9">
     <g id="line2d_19">
      <g>
       <use style="stroke:#000000;stroke-width:0.8;" x="500.590909" xlink:href="#m2539b2239f" y="390.04"/>
      </g>
     </g>
     <g id="text_22">
      <!-- 0 -->
      <g transform="translate(497.409659 404.638438)scale(0.1 -0.1)">
       <use xlink:href="#DejaVuSans-48"/>
      </g>
     </g>
    </g>
    <g id="xtick_10">
     <g id="line2d_20">
      <g>
       <use style="stroke:#000000;stroke-width:0.8;" x="547.788534" xlink:href="#m2539b2239f" y="390.04"/>
      </g>
     </g>
     <g id="text_23">
      <!-- 500 -->
      <g transform="translate(538.244784 404.638438)scale(0.1 -0.1)">
       <use xlink:href="#DejaVuSans-53"/>
       <use x="63.623047" xlink:href="#DejaVuSans-48"/>
       <use x="127.246094" xlink:href="#DejaVuSans-48"/>
      </g>
     </g>
    </g>
    <g id="xtick_11">
     <g id="line2d_21">
      <g>
       <use style="stroke:#000000;stroke-width:0.8;" x="594.986159" xlink:href="#m2539b2239f" y="390.04"/>
      </g>
     </g>
     <g id="text_24">
      <!-- 1000 -->
      <g transform="translate(582.261159 404.638438)scale(0.1 -0.1)">
       <use xlink:href="#DejaVuSans-49"/>
       <use x="63.623047" xlink:href="#DejaVuSans-48"/>
       <use x="127.246094" xlink:href="#DejaVuSans-48"/>
       <use x="190.869141" xlink:href="#DejaVuSans-48"/>
      </g>
     </g>
    </g>
    <g id="xtick_12">
     <g id="line2d_22">
      <g>
       <use style="stroke:#000000;stroke-width:0.8;" x="642.183785" xlink:href="#m2539b2239f" y="390.04"/>
      </g>
     </g>
     <g id="text_25">
      <!-- 1500 -->
      <g transform="translate(629.458785 404.638438)scale(0.1 -0.1)">
       <use xlink:href="#DejaVuSans-49"/>
       <use x="63.623047" xlink:href="#DejaVuSans-53"/>
       <use x="127.246094" xlink:href="#DejaVuSans-48"/>
       <use x="190.869141" xlink:href="#DejaVuSans-48"/>
      </g>
     </g>
    </g>
    <g id="xtick_13">
     <g id="line2d_23">
      <g>
       <use style="stroke:#000000;stroke-width:0.8;" x="689.38141" xlink:href="#m2539b2239f" y="390.04"/>
      </g>
     </g>
     <g id="text_26">
      <!-- 2000 -->
      <g transform="translate(676.65641 404.638438)scale(0.1 -0.1)">
       <use xlink:href="#DejaVuSans-50"/>
       <use x="63.623047" xlink:href="#DejaVuSans-48"/>
       <use x="127.246094" xlink:href="#DejaVuSans-48"/>
       <use x="190.869141" xlink:href="#DejaVuSans-48"/>
      </g>
     </g>
    </g>
    <g id="xtick_14">
     <g id="line2d_24">
      <g>
       <use style="stroke:#000000;stroke-width:0.8;" x="736.579035" xlink:href="#m2539b2239f" y="390.04"/>
      </g>
     </g>
     <g id="text_27">
      <!-- 2500 -->
      <g transform="translate(723.854035 404.638438)scale(0.1 -0.1)">
       <use xlink:href="#DejaVuSans-50"/>
       <use x="63.623047" xlink:href="#DejaVuSans-53"/>
       <use x="127.246094" xlink:href="#DejaVuSans-48"/>
       <use x="190.869141" xlink:href="#DejaVuSans-48"/>
      </g>
     </g>
    </g>
    <g id="xtick_15">
     <g id="line2d_25">
      <g>
       <use style="stroke:#000000;stroke-width:0.8;" x="783.77666" xlink:href="#m2539b2239f" y="390.04"/>
      </g>
     </g>
     <g id="text_28">
      <!-- 3000 -->
      <g transform="translate(771.05166 404.638438)scale(0.1 -0.1)">
       <use xlink:href="#DejaVuSans-51"/>
       <use x="63.623047" xlink:href="#DejaVuSans-48"/>
       <use x="127.246094" xlink:href="#DejaVuSans-48"/>
       <use x="190.869141" xlink:href="#DejaVuSans-48"/>
      </g>
     </g>
    </g>
    <g id="xtick_16">
     <g id="line2d_26">
      <g>
       <use style="stroke:#000000;stroke-width:0.8;" x="830.974285" xlink:href="#m2539b2239f" y="390.04"/>
      </g>
     </g>
     <g id="text_29">
      <!-- 3500 -->
      <g transform="translate(818.249285 404.638438)scale(0.1 -0.1)">
       <use xlink:href="#DejaVuSans-51"/>
       <use x="63.623047" xlink:href="#DejaVuSans-53"/>
       <use x="127.246094" xlink:href="#DejaVuSans-48"/>
       <use x="190.869141" xlink:href="#DejaVuSans-48"/>
      </g>
     </g>
    </g>
    <g id="text_30">
     <!-- Number of sequences -->
     <g transform="translate(614.916406 418.316562)scale(0.1 -0.1)">
      <use xlink:href="#DejaVuSans-78"/>
      <use x="74.804688" xlink:href="#DejaVuSans-117"/>
      <use x="138.183594" xlink:href="#DejaVuSans-109"/>
      <use x="235.595703" xlink:href="#DejaVuSans-98"/>
      <use x="299.072266" xlink:href="#DejaVuSans-101"/>
      <use x="360.595703" xlink:href="#DejaVuSans-114"/>
      <use x="401.708984" xlink:href="#DejaVuSans-32"/>
      <use x="433.496094" xlink:href="#DejaVuSans-111"/>
      <use x="494.677734" xlink:href="#DejaVuSans-102"/>
      <use x="529.882812" xlink:href="#DejaVuSans-32"/>
      <use x="561.669922" xlink:href="#DejaVuSans-115"/>
      <use x="613.769531" xlink:href="#DejaVuSans-101"/>
      <use x="675.292969" xlink:href="#DejaVuSans-113"/>
      <use x="738.769531" xlink:href="#DejaVuSans-117"/>
      <use x="802.148438" xlink:href="#DejaVuSans-101"/>
      <use x="863.671875" xlink:href="#DejaVuSans-110"/>
      <use x="927.050781" xlink:href="#DejaVuSans-99"/>
      <use x="982.03125" xlink:href="#DejaVuSans-101"/>
      <use x="1043.554688" xlink:href="#DejaVuSans-115"/>
     </g>
    </g>
   </g>
   <g id="matplotlib.axis_4">
    <g id="ytick_8">
     <g id="line2d_27">
      <g>
       <use style="stroke:#000000;stroke-width:0.8;" x="483.68" xlink:href="#m9bdd858f41" y="372.648734"/>
      </g>
     </g>
     <g id="text_31">
      <!-- 0 -->
      <g transform="translate(470.3175 376.447953)scale(0.1 -0.1)">
       <use xlink:href="#DejaVuSans-48"/>
      </g>
     </g>
    </g>
    <g id="ytick_9">
     <g id="line2d_28">
      <g>
       <use style="stroke:#000000;stroke-width:0.8;" x="483.68" xlink:href="#m9bdd858f41" y="331.472479"/>
      </g>
     </g>
     <g id="text_32">
      <!-- 250 -->
      <g transform="translate(457.5925 335.271698)scale(0.1 -0.1)">
       <use xlink:href="#DejaVuSans-50"/>
       <use x="63.623047" xlink:href="#DejaVuSans-53"/>
       <use x="127.246094" xlink:href="#DejaVuSans-48"/>
      </g>
     </g>
    </g>
    <g id="ytick_10">
     <g id="line2d_29">
      <g>
       <use style="stroke:#000000;stroke-width:0.8;" x="483.68" xlink:href="#m9bdd858f41" y="290.296224"/>
      </g>
     </g>
     <g id="text_33">
      <!-- 500 -->
      <g transform="translate(457.5925 294.095443)scale(0.1 -0.1)">
       <use xlink:href="#DejaVuSans-53"/>
       <use x="63.623047" xlink:href="#DejaVuSans-48"/>
       <use x="127.246094" xlink:href="#DejaVuSans-48"/>
      </g>
     </g>
    </g>
    <g id="ytick_11">
     <g id="line2d_30">
      <g>
       <use style="stroke:#000000;stroke-width:0.8;" x="483.68" xlink:href="#m9bdd858f41" y="249.119969"/>
      </g>
     </g>
     <g id="text_34">
      <!-- 750 -->
      <g transform="translate(457.5925 252.919188)scale(0.1 -0.1)">
       <use xlink:href="#DejaVuSans-55"/>
       <use x="63.623047" xlink:href="#DejaVuSans-53"/>
       <use x="127.246094" xlink:href="#DejaVuSans-48"/>
      </g>
     </g>
    </g>
    <g id="ytick_12">
     <g id="line2d_31">
      <g>
       <use style="stroke:#000000;stroke-width:0.8;" x="483.68" xlink:href="#m9bdd858f41" y="207.943714"/>
      </g>
     </g>
     <g id="text_35">
      <!-- 1000 -->
      <g transform="translate(451.23 211.742933)scale(0.1 -0.1)">
       <use xlink:href="#DejaVuSans-49"/>
       <use x="63.623047" xlink:href="#DejaVuSans-48"/>
       <use x="127.246094" xlink:href="#DejaVuSans-48"/>
       <use x="190.869141" xlink:href="#DejaVuSans-48"/>
      </g>
     </g>
    </g>
    <g id="ytick_13">
     <g id="line2d_32">
      <g>
       <use style="stroke:#000000;stroke-width:0.8;" x="483.68" xlink:href="#m9bdd858f41" y="166.767459"/>
      </g>
     </g>
     <g id="text_36">
      <!-- 1250 -->
      <g transform="translate(451.23 170.566678)scale(0.1 -0.1)">
       <use xlink:href="#DejaVuSans-49"/>
       <use x="63.623047" xlink:href="#DejaVuSans-50"/>
       <use x="127.246094" xlink:href="#DejaVuSans-53"/>
       <use x="190.869141" xlink:href="#DejaVuSans-48"/>
      </g>
     </g>
    </g>
    <g id="ytick_14">
     <g id="line2d_33">
      <g>
       <use style="stroke:#000000;stroke-width:0.8;" x="483.68" xlink:href="#m9bdd858f41" y="125.591204"/>
      </g>
     </g>
     <g id="text_37">
      <!-- 1500 -->
      <g transform="translate(451.23 129.390423)scale(0.1 -0.1)">
       <use xlink:href="#DejaVuSans-49"/>
       <use x="63.623047" xlink:href="#DejaVuSans-53"/>
       <use x="127.246094" xlink:href="#DejaVuSans-48"/>
       <use x="190.869141" xlink:href="#DejaVuSans-48"/>
      </g>
     </g>
    </g>
    <g id="ytick_15">
     <g id="line2d_34">
      <g>
       <use style="stroke:#000000;stroke-width:0.8;" x="483.68" xlink:href="#m9bdd858f41" y="84.41495"/>
      </g>
     </g>
     <g id="text_38">
      <!-- 1750 -->
      <g transform="translate(451.23 88.214168)scale(0.1 -0.1)">
       <use xlink:href="#DejaVuSans-49"/>
       <use x="63.623047" xlink:href="#DejaVuSans-55"/>
       <use x="127.246094" xlink:href="#DejaVuSans-53"/>
       <use x="190.869141" xlink:href="#DejaVuSans-48"/>
      </g>
     </g>
    </g>
    <g id="ytick_16">
     <g id="line2d_35">
      <g>
       <use style="stroke:#000000;stroke-width:0.8;" x="483.68" xlink:href="#m9bdd858f41" y="43.238695"/>
      </g>
     </g>
     <g id="text_39">
      <!-- 2000 -->
      <g transform="translate(451.23 47.037913)scale(0.1 -0.1)">
       <use xlink:href="#DejaVuSans-50"/>
       <use x="63.623047" xlink:href="#DejaVuSans-48"/>
       <use x="127.246094" xlink:href="#DejaVuSans-48"/>
       <use x="190.869141" xlink:href="#DejaVuSans-48"/>
      </g>
     </g>
    </g>
    <g id="text_40">
     <!-- Time (s) -->
     <g transform="translate(445.150313 228.068906)rotate(-90)scale(0.1 -0.1)">
      <use xlink:href="#DejaVuSans-84"/>
      <use x="57.958984" xlink:href="#DejaVuSans-105"/>
      <use x="85.742188" xlink:href="#DejaVuSans-109"/>
      <use x="183.154297" xlink:href="#DejaVuSans-101"/>
      <use x="244.677734" xlink:href="#DejaVuSans-32"/>
      <use x="276.464844" xlink:href="#DejaVuSans-40"/>
      <use x="315.478516" xlink:href="#DejaVuSans-115"/>
      <use x="367.578125" xlink:href="#DejaVuSans-41"/>
     </g>
    </g>
   </g>
   <g id="line2d_36">
    <path clip-path="url(#p4763a7dfcc)" d="M 500.590909 372.596511 
L 509.054828 372.480678 
L 517.518746 372.145728 
L 525.982664 371.59166 
L 534.446583 370.818475 
L 542.910501 369.826173 
L 551.37442 368.614753 
L 559.838338 367.184216 
L 568.302257 365.534562 
L 576.766175 363.665791 
L 585.56865 361.489829 
L 594.371126 359.07687 
L 603.173601 356.426914 
L 611.976076 353.53996 
L 620.778551 350.416009 
L 629.581026 347.055061 
L 638.383502 343.457115 
L 647.185977 339.622173 
L 655.988452 335.550233 
L 665.129484 331.070834 
L 674.270516 326.335857 
L 683.411548 321.345302 
L 692.55258 316.099168 
L 701.693612 310.597456 
L 710.834644 304.840166 
L 719.975676 298.827297 
L 729.455264 292.321777 
L 738.934853 285.541396 
L 748.414442 278.486154 
L 757.89403 271.156052 
L 767.373619 263.551089 
L 777.191764 255.384759 
L 787.00991 246.923585 
L 796.828055 238.167567 
L 806.646201 229.116705 
L 816.464346 219.770998 
L 826.621048 209.792756 
L 836.77775 199.498985 
L 838.809091 197.402367 
L 838.809091 197.402367 
" style="fill:none;stroke:#7f3c8d;stroke-dasharray:5.55,2.4;stroke-dashoffset:0;stroke-width:1.5;"/>
   </g>
   <g id="line2d_37">
    <path clip-path="url(#p4763a7dfcc)" d="M 500.590909 372.644194 
L 522.597097 372.5032 
L 544.603285 372.136638 
L 566.609473 371.544509 
L 588.615661 370.726812 
L 610.621849 369.683547 
L 632.628037 368.414714 
L 654.634225 366.920314 
L 676.640413 365.200347 
L 698.646601 363.254811 
L 720.652789 361.083708 
L 742.658977 358.687037 
L 764.665165 356.064799 
L 786.671353 353.216993 
L 808.677541 350.143619 
L 830.683729 346.844678 
L 838.809091 345.569588 
L 838.809091 345.569588 
" style="fill:none;stroke:#11a579;stroke-dasharray:5.55,2.4;stroke-dashoffset:0;stroke-width:1.5;"/>
   </g>
   <g id="line2d_38">
    <path clip-path="url(#p4763a7dfcc)" d="M 500.590909 373.467273 
L 506.68493 373.233949 
L 513.117508 372.759189 
L 519.550086 372.04978 
L 525.982664 371.105722 
L 532.415243 369.927014 
L 538.847821 368.513657 
L 545.280399 366.865651 
L 551.712977 364.982996 
L 558.145555 362.865692 
L 564.578133 360.513738 
L 571.010711 357.927135 
L 577.443289 355.105883 
L 583.875867 352.049982 
L 590.647002 348.579745 
L 597.418136 344.849508 
L 604.189271 340.859273 
L 610.960406 336.609038 
L 617.731541 332.098804 
L 624.502675 327.328571 
L 631.612367 322.040003 
L 638.722058 316.464785 
L 645.83175 310.602918 
L 652.941441 304.454402 
L 660.051133 298.019238 
L 667.499381 290.970188 
L 674.947629 283.606538 
L 682.395878 275.92829 
L 689.844126 267.935443 
L 697.630931 259.242911 
L 705.417736 250.206531 
L 713.204541 240.826301 
L 720.991346 231.102222 
L 729.116708 220.588759 
L 737.242069 209.700897 
L 745.367431 198.438636 
L 753.492793 186.801976 
L 761.956711 174.282332 
L 770.42063 161.35644 
L 778.884548 148.024298 
L 787.348467 134.285908 
L 796.150942 119.567034 
L 804.953417 104.408762 
L 813.755892 88.811091 
L 822.896924 72.148436 
L 832.037956 55.011932 
L 838.809091 42.012727 
L 838.809091 42.012727 
" style="fill:none;stroke:#3969ac;stroke-dasharray:5.55,2.4;stroke-dashoffset:0;stroke-width:1.5;"/>
   </g>
   <g id="patch_9">
    <path d="M 483.68 390.04 
L 483.68 25.44 
" style="fill:none;stroke:#000000;stroke-linecap:square;stroke-linejoin:miter;stroke-width:0.8;"/>
   </g>
   <g id="patch_10">
    <path d="M 855.72 390.04 
L 855.72 25.44 
" style="fill:none;stroke:#000000;stroke-linecap:square;stroke-linejoin:miter;stroke-width:0.8;"/>
   </g>
   <g id="patch_11">
    <path d="M 483.68 390.04 
L 855.72 390.04 
" style="fill:none;stroke:#000000;stroke-linecap:square;stroke-linejoin:miter;stroke-width:0.8;"/>
   </g>
   <g id="patch_12">
    <path d="M 483.68 25.44 
L 855.72 25.44 
" style="fill:none;stroke:#000000;stroke-linecap:square;stroke-linejoin:miter;stroke-width:0.8;"/>
   </g>
   <g id="text_41">
    <!-- Overlap -->
    <g transform="translate(646.114375 19.44)scale(0.12 -0.12)">
     <defs>
      <path d="M 2.984375 54.6875 
L 12.5 54.6875 
L 29.59375 8.796875 
L 46.6875 54.6875 
L 56.203125 54.6875 
L 35.6875 0 
L 23.484375 0 
z
" id="DejaVuSans-118"/>
      <path d="M 9.421875 75.984375 
L 18.40625 75.984375 
L 18.40625 0 
L 9.421875 0 
z
" id="DejaVuSans-108"/>
     </defs>
     <use xlink:href="#DejaVuSans-79"/>
     <use x="78.710938" xlink:href="#DejaVuSans-118"/>
     <use x="137.890625" xlink:href="#DejaVuSans-101"/>
     <use x="199.414062" xlink:href="#DejaVuSans-114"/>
     <use x="240.527344" xlink:href="#DejaVuSans-108"/>
     <use x="268.310547" xlink:href="#DejaVuSans-97"/>
     <use x="329.589844" xlink:href="#DejaVuSans-112"/>
    </g>
   </g>
   <g id="legend_2">
    <g id="patch_13">
     <path d="M 490.68 77.474375 
L 561.459688 77.474375 
Q 563.459688 77.474375 563.459688 75.474375 
L 563.459688 32.44 
Q 563.459688 30.44 561.459688 30.44 
L 490.68 30.44 
Q 488.68 30.44 488.68 32.44 
L 488.68 75.474375 
Q 488.68 77.474375 490.68 77.474375 
z
" style="fill:#ffffff;opacity:0.8;stroke:#cccccc;stroke-linejoin:miter;"/>
    </g>
    <g id="PathCollection_10">
     <g>
      <use style="fill:#7f3c8d;stroke:#7f3c8d;stroke-width:1.5;" x="502.68" xlink:href="#m46ab50b485" y="39.413437"/>
     </g>
    </g>
    <g id="text_42">
     <!-- Generic -->
     <g transform="translate(520.68 42.038437)scale(0.1 -0.1)">
      <use xlink:href="#DejaVuSans-71"/>
      <use x="77.490234" xlink:href="#DejaVuSans-101"/>
      <use x="139.013672" xlink:href="#DejaVuSans-110"/>
      <use x="202.392578" xlink:href="#DejaVuSans-101"/>
      <use x="263.916016" xlink:href="#DejaVuSans-114"/>
      <use x="305.029297" xlink:href="#DejaVuSans-105"/>
      <use x="332.8125" xlink:href="#DejaVuSans-99"/>
     </g>
    </g>
    <g id="PathCollection_11">
     <g>
      <use style="fill:#11a579;stroke:#11a579;stroke-width:1.5;" x="502.68" xlink:href="#mf261e7dfbd" y="54.091563"/>
     </g>
    </g>
    <g id="text_43">
     <!-- NEON -->
     <g transform="translate(520.68 56.716563)scale(0.1 -0.1)">
      <use xlink:href="#DejaVuSans-78"/>
      <use x="74.804688" xlink:href="#DejaVuSans-69"/>
      <use x="137.988281" xlink:href="#DejaVuSans-79"/>
      <use x="216.699219" xlink:href="#DejaVuSans-78"/>
     </g>
    </g>
    <g id="PathCollection_12">
     <g>
      <use style="fill:#3969ac;stroke:#3969ac;stroke-width:1.5;" x="502.68" xlink:href="#m6507050681" y="68.769687"/>
     </g>
    </g>
    <g id="text_44">
     <!-- None -->
     <g transform="translate(520.68 71.394687)scale(0.1 -0.1)">
      <use xlink:href="#DejaVuSans-78"/>
      <use x="74.804688" xlink:href="#DejaVuSans-111"/>
      <use x="135.986328" xlink:href="#DejaVuSans-110"/>
      <use x="199.365234" xlink:href="#DejaVuSans-101"/>
     </g>
    </g>
   </g>
  </g>
  <g id="axes_3">
   <g id="patch_14">
    <path d="M 913.16 390.04 
L 1285.2 390.04 
L 1285.2 25.44 
L 913.16 25.44 
z
" style="fill:none;"/>
   </g>
   <g id="PathCollection_13">
    <g clip-path="url(#p4dae59c7cf)">
     <use style="fill:#7f3c8d;stroke:#7f3c8d;stroke-width:1.5;" x="931.014862" xlink:href="#m46ab50b485" y="373.465796"/>
     <use style="fill:#7f3c8d;stroke:#7f3c8d;stroke-width:1.5;" x="968.489776" xlink:href="#m46ab50b485" y="370.143835"/>
     <use style="fill:#7f3c8d;stroke:#7f3c8d;stroke-width:1.5;" x="1005.96469" xlink:href="#m46ab50b485" y="360.833043"/>
     <use style="fill:#7f3c8d;stroke:#7f3c8d;stroke-width:1.5;" x="1043.439605" xlink:href="#m46ab50b485" y="345.532749"/>
     <use style="fill:#7f3c8d;stroke:#7f3c8d;stroke-width:1.5;" x="1080.914519" xlink:href="#m46ab50b485" y="324.279329"/>
     <use style="fill:#7f3c8d;stroke:#7f3c8d;stroke-width:1.5;" x="1118.389433" xlink:href="#m46ab50b485" y="297.069821"/>
     <use style="fill:#7f3c8d;stroke:#7f3c8d;stroke-width:1.5;" x="1155.864348" xlink:href="#m46ab50b485" y="263.829714"/>
     <use style="fill:#7f3c8d;stroke:#7f3c8d;stroke-width:1.5;" x="1193.339262" xlink:href="#m46ab50b485" y="224.719699"/>
     <use style="fill:#7f3c8d;stroke:#7f3c8d;stroke-width:1.5;" x="1230.814177" xlink:href="#m46ab50b485" y="179.373977"/>
     <use style="fill:#7f3c8d;stroke:#7f3c8d;stroke-width:1.5;" x="1268.289091" xlink:href="#m46ab50b485" y="128.311089"/>
    </g>
   </g>
   <g id="PathCollection_14">
    <g clip-path="url(#p4dae59c7cf)">
     <use style="fill:#11a579;stroke:#11a579;stroke-width:1.5;" x="931.014862" xlink:href="#mf261e7dfbd" y="373.467273"/>
     <use style="fill:#11a579;stroke:#11a579;stroke-width:1.5;" x="968.489776" xlink:href="#mf261e7dfbd" y="372.766832"/>
     <use style="fill:#11a579;stroke:#11a579;stroke-width:1.5;" x="1005.96469" xlink:href="#mf261e7dfbd" y="371.066413"/>
     <use style="fill:#11a579;stroke:#11a579;stroke-width:1.5;" x="1043.439605" xlink:href="#mf261e7dfbd" y="368.373452"/>
     <use style="fill:#11a579;stroke:#11a579;stroke-width:1.5;" x="1080.914519" xlink:href="#mf261e7dfbd" y="364.663972"/>
     <use style="fill:#11a579;stroke:#11a579;stroke-width:1.5;" x="1118.389433" xlink:href="#mf261e7dfbd" y="359.881283"/>
     <use style="fill:#11a579;stroke:#11a579;stroke-width:1.5;" x="1155.864348" xlink:href="#mf261e7dfbd" y="354.155383"/>
     <use style="fill:#11a579;stroke:#11a579;stroke-width:1.5;" x="1193.339262" xlink:href="#mf261e7dfbd" y="347.389343"/>
     <use style="fill:#11a579;stroke:#11a579;stroke-width:1.5;" x="1230.814177" xlink:href="#mf261e7dfbd" y="339.610949"/>
     <use style="fill:#11a579;stroke:#11a579;stroke-width:1.5;" x="1268.289091" xlink:href="#mf261e7dfbd" y="330.55885"/>
    </g>
   </g>
   <g id="PathCollection_15">
    <g clip-path="url(#p4dae59c7cf)">
     <use style="fill:#3969ac;stroke:#3969ac;stroke-width:1.5;" x="931.014862" xlink:href="#m6507050681" y="373.465902"/>
     <use style="fill:#3969ac;stroke:#3969ac;stroke-width:1.5;" x="968.489776" xlink:href="#m6507050681" y="369.293483"/>
     <use style="fill:#3969ac;stroke:#3969ac;stroke-width:1.5;" x="1005.96469" xlink:href="#m6507050681" y="356.953214"/>
     <use style="fill:#3969ac;stroke:#3969ac;stroke-width:1.5;" x="1043.439605" xlink:href="#m6507050681" y="336.617633"/>
     <use style="fill:#3969ac;stroke:#3969ac;stroke-width:1.5;" x="1080.914519" xlink:href="#m6507050681" y="307.982835"/>
     <use style="fill:#3969ac;stroke:#3969ac;stroke-width:1.5;" x="1118.389433" xlink:href="#m6507050681" y="271.022288"/>
     <use style="fill:#3969ac;stroke:#3969ac;stroke-width:1.5;" x="1155.864348" xlink:href="#m6507050681" y="226.251042"/>
     <use style="fill:#3969ac;stroke:#3969ac;stroke-width:1.5;" x="1193.339262" xlink:href="#m6507050681" y="173.045961"/>
     <use style="fill:#3969ac;stroke:#3969ac;stroke-width:1.5;" x="1230.814177" xlink:href="#m6507050681" y="111.778241"/>
     <use style="fill:#3969ac;stroke:#3969ac;stroke-width:1.5;" x="1268.289091" xlink:href="#m6507050681" y="42.012727"/>
    </g>
   </g>
   <g id="matplotlib.axis_5">
    <g id="xtick_17">
     <g id="line2d_39">
      <g>
       <use style="stroke:#000000;stroke-width:0.8;" x="930.070909" xlink:href="#m2539b2239f" y="390.04"/>
      </g>
     </g>
     <g id="text_45">
      <!-- 0 -->
      <g transform="translate(926.889659 404.638438)scale(0.1 -0.1)">
       <use xlink:href="#DejaVuSans-48"/>
      </g>
     </g>
    </g>
    <g id="xtick_18">
     <g id="line2d_40">
      <g>
       <use style="stroke:#000000;stroke-width:0.8;" x="977.268534" xlink:href="#m2539b2239f" y="390.04"/>
      </g>
     </g>
     <g id="text_46">
      <!-- 500 -->
      <g transform="translate(967.724784 404.638438)scale(0.1 -0.1)">
       <use xlink:href="#DejaVuSans-53"/>
       <use x="63.623047" xlink:href="#DejaVuSans-48"/>
       <use x="127.246094" xlink:href="#DejaVuSans-48"/>
      </g>
     </g>
    </g>
    <g id="xtick_19">
     <g id="line2d_41">
      <g>
       <use style="stroke:#000000;stroke-width:0.8;" x="1024.466159" xlink:href="#m2539b2239f" y="390.04"/>
      </g>
     </g>
     <g id="text_47">
      <!-- 1000 -->
      <g transform="translate(1011.741159 404.638438)scale(0.1 -0.1)">
       <use xlink:href="#DejaVuSans-49"/>
       <use x="63.623047" xlink:href="#DejaVuSans-48"/>
       <use x="127.246094" xlink:href="#DejaVuSans-48"/>
       <use x="190.869141" xlink:href="#DejaVuSans-48"/>
      </g>
     </g>
    </g>
    <g id="xtick_20">
     <g id="line2d_42">
      <g>
       <use style="stroke:#000000;stroke-width:0.8;" x="1071.663785" xlink:href="#m2539b2239f" y="390.04"/>
      </g>
     </g>
     <g id="text_48">
      <!-- 1500 -->
      <g transform="translate(1058.938785 404.638438)scale(0.1 -0.1)">
       <use xlink:href="#DejaVuSans-49"/>
       <use x="63.623047" xlink:href="#DejaVuSans-53"/>
       <use x="127.246094" xlink:href="#DejaVuSans-48"/>
       <use x="190.869141" xlink:href="#DejaVuSans-48"/>
      </g>
     </g>
    </g>
    <g id="xtick_21">
     <g id="line2d_43">
      <g>
       <use style="stroke:#000000;stroke-width:0.8;" x="1118.86141" xlink:href="#m2539b2239f" y="390.04"/>
      </g>
     </g>
     <g id="text_49">
      <!-- 2000 -->
      <g transform="translate(1106.13641 404.638438)scale(0.1 -0.1)">
       <use xlink:href="#DejaVuSans-50"/>
       <use x="63.623047" xlink:href="#DejaVuSans-48"/>
       <use x="127.246094" xlink:href="#DejaVuSans-48"/>
       <use x="190.869141" xlink:href="#DejaVuSans-48"/>
      </g>
     </g>
    </g>
    <g id="xtick_22">
     <g id="line2d_44">
      <g>
       <use style="stroke:#000000;stroke-width:0.8;" x="1166.059035" xlink:href="#m2539b2239f" y="390.04"/>
      </g>
     </g>
     <g id="text_50">
      <!-- 2500 -->
      <g transform="translate(1153.334035 404.638438)scale(0.1 -0.1)">
       <use xlink:href="#DejaVuSans-50"/>
       <use x="63.623047" xlink:href="#DejaVuSans-53"/>
       <use x="127.246094" xlink:href="#DejaVuSans-48"/>
       <use x="190.869141" xlink:href="#DejaVuSans-48"/>
      </g>
     </g>
    </g>
    <g id="xtick_23">
     <g id="line2d_45">
      <g>
       <use style="stroke:#000000;stroke-width:0.8;" x="1213.25666" xlink:href="#m2539b2239f" y="390.04"/>
      </g>
     </g>
     <g id="text_51">
      <!-- 3000 -->
      <g transform="translate(1200.53166 404.638438)scale(0.1 -0.1)">
       <use xlink:href="#DejaVuSans-51"/>
       <use x="63.623047" xlink:href="#DejaVuSans-48"/>
       <use x="127.246094" xlink:href="#DejaVuSans-48"/>
       <use x="190.869141" xlink:href="#DejaVuSans-48"/>
      </g>
     </g>
    </g>
    <g id="xtick_24">
     <g id="line2d_46">
      <g>
       <use style="stroke:#000000;stroke-width:0.8;" x="1260.454285" xlink:href="#m2539b2239f" y="390.04"/>
      </g>
     </g>
     <g id="text_52">
      <!-- 3500 -->
      <g transform="translate(1247.729285 404.638438)scale(0.1 -0.1)">
       <use xlink:href="#DejaVuSans-51"/>
       <use x="63.623047" xlink:href="#DejaVuSans-53"/>
       <use x="127.246094" xlink:href="#DejaVuSans-48"/>
       <use x="190.869141" xlink:href="#DejaVuSans-48"/>
      </g>
     </g>
    </g>
    <g id="text_53">
     <!-- Number of sequences -->
     <g transform="translate(1044.396406 418.316562)scale(0.1 -0.1)">
      <use xlink:href="#DejaVuSans-78"/>
      <use x="74.804688" xlink:href="#DejaVuSans-117"/>
      <use x="138.183594" xlink:href="#DejaVuSans-109"/>
      <use x="235.595703" xlink:href="#DejaVuSans-98"/>
      <use x="299.072266" xlink:href="#DejaVuSans-101"/>
      <use x="360.595703" xlink:href="#DejaVuSans-114"/>
      <use x="401.708984" xlink:href="#DejaVuSans-32"/>
      <use x="433.496094" xlink:href="#DejaVuSans-111"/>
      <use x="494.677734" xlink:href="#DejaVuSans-102"/>
      <use x="529.882812" xlink:href="#DejaVuSans-32"/>
      <use x="561.669922" xlink:href="#DejaVuSans-115"/>
      <use x="613.769531" xlink:href="#DejaVuSans-101"/>
      <use x="675.292969" xlink:href="#DejaVuSans-113"/>
      <use x="738.769531" xlink:href="#DejaVuSans-117"/>
      <use x="802.148438" xlink:href="#DejaVuSans-101"/>
      <use x="863.671875" xlink:href="#DejaVuSans-110"/>
      <use x="927.050781" xlink:href="#DejaVuSans-99"/>
      <use x="982.03125" xlink:href="#DejaVuSans-101"/>
      <use x="1043.554688" xlink:href="#DejaVuSans-115"/>
     </g>
    </g>
   </g>
   <g id="matplotlib.axis_6">
    <g id="ytick_17">
     <g id="line2d_47">
      <g>
       <use style="stroke:#000000;stroke-width:0.8;" x="913.16" xlink:href="#m9bdd858f41" y="373.472268"/>
      </g>
     </g>
     <g id="text_54">
      <!-- 0 -->
      <g transform="translate(899.7975 377.271487)scale(0.1 -0.1)">
       <use xlink:href="#DejaVuSans-48"/>
      </g>
     </g>
    </g>
    <g id="ytick_18">
     <g id="line2d_48">
      <g>
       <use style="stroke:#000000;stroke-width:0.8;" x="913.16" xlink:href="#m9bdd858f41" y="329.86984"/>
      </g>
     </g>
     <g id="text_55">
      <!-- 100 -->
      <g transform="translate(887.0725 333.669059)scale(0.1 -0.1)">
       <use xlink:href="#DejaVuSans-49"/>
       <use x="63.623047" xlink:href="#DejaVuSans-48"/>
       <use x="127.246094" xlink:href="#DejaVuSans-48"/>
      </g>
     </g>
    </g>
    <g id="ytick_19">
     <g id="line2d_49">
      <g>
       <use style="stroke:#000000;stroke-width:0.8;" x="913.16" xlink:href="#m9bdd858f41" y="286.267412"/>
      </g>
     </g>
     <g id="text_56">
      <!-- 200 -->
      <g transform="translate(887.0725 290.066631)scale(0.1 -0.1)">
       <use xlink:href="#DejaVuSans-50"/>
       <use x="63.623047" xlink:href="#DejaVuSans-48"/>
       <use x="127.246094" xlink:href="#DejaVuSans-48"/>
      </g>
     </g>
    </g>
    <g id="ytick_20">
     <g id="line2d_50">
      <g>
       <use style="stroke:#000000;stroke-width:0.8;" x="913.16" xlink:href="#m9bdd858f41" y="242.664984"/>
      </g>
     </g>
     <g id="text_57">
      <!-- 300 -->
      <g transform="translate(887.0725 246.464203)scale(0.1 -0.1)">
       <use xlink:href="#DejaVuSans-51"/>
       <use x="63.623047" xlink:href="#DejaVuSans-48"/>
       <use x="127.246094" xlink:href="#DejaVuSans-48"/>
      </g>
     </g>
    </g>
    <g id="ytick_21">
     <g id="line2d_51">
      <g>
       <use style="stroke:#000000;stroke-width:0.8;" x="913.16" xlink:href="#m9bdd858f41" y="199.062556"/>
      </g>
     </g>
     <g id="text_58">
      <!-- 400 -->
      <g transform="translate(887.0725 202.861775)scale(0.1 -0.1)">
       <defs>
        <path d="M 37.796875 64.3125 
L 12.890625 25.390625 
L 37.796875 25.390625 
z
M 35.203125 72.90625 
L 47.609375 72.90625 
L 47.609375 25.390625 
L 58.015625 25.390625 
L 58.015625 17.1875 
L 47.609375 17.1875 
L 47.609375 0 
L 37.796875 0 
L 37.796875 17.1875 
L 4.890625 17.1875 
L 4.890625 26.703125 
z
" id="DejaVuSans-52"/>
       </defs>
       <use xlink:href="#DejaVuSans-52"/>
       <use x="63.623047" xlink:href="#DejaVuSans-48"/>
       <use x="127.246094" xlink:href="#DejaVuSans-48"/>
      </g>
     </g>
    </g>
    <g id="ytick_22">
     <g id="line2d_52">
      <g>
       <use style="stroke:#000000;stroke-width:0.8;" x="913.16" xlink:href="#m9bdd858f41" y="155.460128"/>
      </g>
     </g>
     <g id="text_59">
      <!-- 500 -->
      <g transform="translate(887.0725 159.259347)scale(0.1 -0.1)">
       <use xlink:href="#DejaVuSans-53"/>
       <use x="63.623047" xlink:href="#DejaVuSans-48"/>
       <use x="127.246094" xlink:href="#DejaVuSans-48"/>
      </g>
     </g>
    </g>
    <g id="ytick_23">
     <g id="line2d_53">
      <g>
       <use style="stroke:#000000;stroke-width:0.8;" x="913.16" xlink:href="#m9bdd858f41" y="111.8577"/>
      </g>
     </g>
     <g id="text_60">
      <!-- 600 -->
      <g transform="translate(887.0725 115.656919)scale(0.1 -0.1)">
       <use xlink:href="#DejaVuSans-54"/>
       <use x="63.623047" xlink:href="#DejaVuSans-48"/>
       <use x="127.246094" xlink:href="#DejaVuSans-48"/>
      </g>
     </g>
    </g>
    <g id="ytick_24">
     <g id="line2d_54">
      <g>
       <use style="stroke:#000000;stroke-width:0.8;" x="913.16" xlink:href="#m9bdd858f41" y="68.255272"/>
      </g>
     </g>
     <g id="text_61">
      <!-- 700 -->
      <g transform="translate(887.0725 72.054491)scale(0.1 -0.1)">
       <use xlink:href="#DejaVuSans-55"/>
       <use x="63.623047" xlink:href="#DejaVuSans-48"/>
       <use x="127.246094" xlink:href="#DejaVuSans-48"/>
      </g>
     </g>
    </g>
    <g id="text_62">
     <!-- Time (s) -->
     <g transform="translate(880.992813 228.068906)rotate(-90)scale(0.1 -0.1)">
      <use xlink:href="#DejaVuSans-84"/>
      <use x="57.958984" xlink:href="#DejaVuSans-105"/>
      <use x="85.742188" xlink:href="#DejaVuSans-109"/>
      <use x="183.154297" xlink:href="#DejaVuSans-101"/>
      <use x="244.677734" xlink:href="#DejaVuSans-32"/>
      <use x="276.464844" xlink:href="#DejaVuSans-40"/>
      <use x="315.478516" xlink:href="#DejaVuSans-115"/>
      <use x="367.578125" xlink:href="#DejaVuSans-41"/>
     </g>
    </g>
   </g>
   <g id="line2d_55">
    <path clip-path="url(#p4dae59c7cf)" d="M 930.070909 373.465086 
L 937.180601 373.323231 
L 944.290292 372.966142 
L 951.399984 372.39382 
L 958.509675 371.606264 
L 965.619367 370.603474 
L 972.729058 369.385451 
L 980.177306 367.878575 
L 987.625555 366.135479 
L 995.073803 364.156162 
L 1002.522051 361.940626 
L 1009.970299 359.488869 
L 1017.418548 356.800892 
L 1024.866796 353.876694 
L 1032.315044 350.716277 
L 1039.763292 347.319639 
L 1047.211541 343.686781 
L 1054.998346 339.636223 
L 1062.785151 335.327482 
L 1070.571956 330.760558 
L 1078.358761 325.935452 
L 1086.145566 320.852162 
L 1093.932371 315.51069 
L 1102.057732 309.661715 
L 1110.183094 303.531618 
L 1118.308456 297.1204 
L 1126.433817 290.428061 
L 1134.559179 283.454599 
L 1143.023098 275.891641 
L 1151.487016 268.023647 
L 1159.950935 259.850616 
L 1168.414853 251.372549 
L 1177.217328 242.231776 
L 1186.019803 232.761076 
L 1194.822279 222.960449 
L 1203.624754 212.829894 
L 1212.427229 202.369412 
L 1221.568261 191.157398 
L 1230.709293 179.589589 
L 1239.850325 167.665986 
L 1248.991357 155.386589 
L 1258.470945 142.276594 
L 1267.950534 128.783961 
L 1268.289091 128.295005 
L 1268.289091 128.295005 
" style="fill:none;stroke:#7f3c8d;stroke-dasharray:5.55,2.4;stroke-dashoffset:0;stroke-width:1.5;"/>
   </g>
   <g id="line2d_56">
    <path clip-path="url(#p4dae59c7cf)" d="M 930.070909 373.430308 
L 947.675859 373.263939 
L 965.28081 372.871342 
L 982.88576 372.252516 
L 1000.490711 371.407461 
L 1018.095661 370.336178 
L 1035.700612 369.038666 
L 1053.305562 367.514926 
L 1070.910512 365.764957 
L 1088.515463 363.78876 
L 1106.120413 361.586334 
L 1123.725364 359.15768 
L 1141.330314 356.502797 
L 1158.935264 353.621685 
L 1176.540215 350.514345 
L 1194.145165 347.180776 
L 1211.750116 343.620979 
L 1229.355066 339.834953 
L 1246.960016 335.822699 
L 1264.564967 331.584216 
L 1268.289091 330.658624 
L 1268.289091 330.658624 
" style="fill:none;stroke:#11a579;stroke-dasharray:5.55,2.4;stroke-dashoffset:0;stroke-width:1.5;"/>
   </g>
   <g id="line2d_57">
    <path clip-path="url(#p4dae59c7cf)" d="M 930.070909 373.401567 
L 936.16493 373.326462 
L 942.258952 373.035074 
L 948.352973 372.527406 
L 954.446994 371.803455 
L 960.541016 370.863223 
L 966.635037 369.706709 
L 972.729058 368.333913 
L 979.161636 366.650212 
L 985.594214 364.725531 
L 992.026792 362.559869 
L 998.45937 360.153226 
L 1004.891948 357.505603 
L 1011.324526 354.616999 
L 1017.757104 351.487415 
L 1024.189682 348.11685 
L 1030.62226 344.505305 
L 1037.393395 340.443339 
L 1044.16453 336.114359 
L 1050.935665 331.518364 
L 1057.7068 326.655355 
L 1064.477934 321.525331 
L 1071.587626 315.851432 
L 1078.697317 309.88315 
L 1085.807009 303.620484 
L 1092.9167 297.063434 
L 1100.026392 290.212001 
L 1107.47464 282.718565 
L 1114.922888 274.902042 
L 1122.371137 266.76243 
L 1129.819385 258.299732 
L 1137.60619 249.106915 
L 1145.392995 239.560972 
L 1153.1798 229.661902 
L 1160.966605 219.409705 
L 1169.091967 208.335271 
L 1177.217328 196.876335 
L 1185.34269 185.032899 
L 1193.468052 172.804962 
L 1201.93197 159.658662 
L 1210.395889 146.095152 
L 1218.859807 132.114431 
L 1227.662282 117.131905 
L 1236.464757 101.698125 
L 1245.267233 85.813091 
L 1254.069708 69.476802 
L 1263.21074 52.034572 
L 1268.289091 42.13417 
L 1268.289091 42.13417 
" style="fill:none;stroke:#3969ac;stroke-dasharray:5.55,2.4;stroke-dashoffset:0;stroke-width:1.5;"/>
   </g>
   <g id="patch_15">
    <path d="M 913.16 390.04 
L 913.16 25.44 
" style="fill:none;stroke:#000000;stroke-linecap:square;stroke-linejoin:miter;stroke-width:0.8;"/>
   </g>
   <g id="patch_16">
    <path d="M 1285.2 390.04 
L 1285.2 25.44 
" style="fill:none;stroke:#000000;stroke-linecap:square;stroke-linejoin:miter;stroke-width:0.8;"/>
   </g>
   <g id="patch_17">
    <path d="M 913.16 390.04 
L 1285.2 390.04 
" style="fill:none;stroke:#000000;stroke-linecap:square;stroke-linejoin:miter;stroke-width:0.8;"/>
   </g>
   <g id="patch_18">
    <path d="M 913.16 25.44 
L 1285.2 25.44 
" style="fill:none;stroke:#000000;stroke-linecap:square;stroke-linejoin:miter;stroke-width:0.8;"/>
   </g>
   <g id="text_63">
    <!-- Similarity -->
    <g transform="translate(1070.812188 19.44)scale(0.12 -0.12)">
     <defs>
      <path d="M 53.515625 70.515625 
L 53.515625 60.890625 
Q 47.90625 63.578125 42.921875 64.890625 
Q 37.9375 66.21875 33.296875 66.21875 
Q 25.25 66.21875 20.875 63.09375 
Q 16.5 59.96875 16.5 54.203125 
Q 16.5 49.359375 19.40625 46.890625 
Q 22.3125 44.4375 30.421875 42.921875 
L 36.375 41.703125 
Q 47.40625 39.59375 52.65625 34.296875 
Q 57.90625 29 57.90625 20.125 
Q 57.90625 9.515625 50.796875 4.046875 
Q 43.703125 -1.421875 29.984375 -1.421875 
Q 24.8125 -1.421875 18.96875 -0.25 
Q 13.140625 0.921875 6.890625 3.21875 
L 6.890625 13.375 
Q 12.890625 10.015625 18.65625 8.296875 
Q 24.421875 6.59375 29.984375 6.59375 
Q 38.421875 6.59375 43.015625 9.90625 
Q 47.609375 13.234375 47.609375 19.390625 
Q 47.609375 24.75 44.3125 27.78125 
Q 41.015625 30.8125 33.5 32.328125 
L 27.484375 33.5 
Q 16.453125 35.6875 11.515625 40.375 
Q 6.59375 45.0625 6.59375 53.421875 
Q 6.59375 63.09375 13.40625 68.65625 
Q 20.21875 74.21875 32.171875 74.21875 
Q 37.3125 74.21875 42.625 73.28125 
Q 47.953125 72.359375 53.515625 70.515625 
z
" id="DejaVuSans-83"/>
      <path d="M 18.3125 70.21875 
L 18.3125 54.6875 
L 36.8125 54.6875 
L 36.8125 47.703125 
L 18.3125 47.703125 
L 18.3125 18.015625 
Q 18.3125 11.328125 20.140625 9.421875 
Q 21.96875 7.515625 27.59375 7.515625 
L 36.8125 7.515625 
L 36.8125 0 
L 27.59375 0 
Q 17.1875 0 13.234375 3.875 
Q 9.28125 7.765625 9.28125 18.015625 
L 9.28125 47.703125 
L 2.6875 47.703125 
L 2.6875 54.6875 
L 9.28125 54.6875 
L 9.28125 70.21875 
z
" id="DejaVuSans-116"/>
      <path d="M 32.171875 -5.078125 
Q 28.375 -14.84375 24.75 -17.8125 
Q 21.140625 -20.796875 15.09375 -20.796875 
L 7.90625 -20.796875 
L 7.90625 -13.28125 
L 13.1875 -13.28125 
Q 16.890625 -13.28125 18.9375 -11.515625 
Q 21 -9.765625 23.484375 -3.21875 
L 25.09375 0.875 
L 2.984375 54.6875 
L 12.5 54.6875 
L 29.59375 11.921875 
L 46.6875 54.6875 
L 56.203125 54.6875 
z
" id="DejaVuSans-121"/>
     </defs>
     <use xlink:href="#DejaVuSans-83"/>
     <use x="63.476562" xlink:href="#DejaVuSans-105"/>
     <use x="91.259766" xlink:href="#DejaVuSans-109"/>
     <use x="188.671875" xlink:href="#DejaVuSans-105"/>
     <use x="216.455078" xlink:href="#DejaVuSans-108"/>
     <use x="244.238281" xlink:href="#DejaVuSans-97"/>
     <use x="305.517578" xlink:href="#DejaVuSans-114"/>
     <use x="346.630859" xlink:href="#DejaVuSans-105"/>
     <use x="374.414062" xlink:href="#DejaVuSans-116"/>
     <use x="413.623047" xlink:href="#DejaVuSans-121"/>
    </g>
   </g>
   <g id="legend_3">
    <g id="patch_19">
     <path d="M 920.16 77.474375 
L 990.939688 77.474375 
Q 992.939688 77.474375 992.939688 75.474375 
L 992.939688 32.44 
Q 992.939688 30.44 990.939688 30.44 
L 920.16 30.44 
Q 918.16 30.44 918.16 32.44 
L 918.16 75.474375 
Q 918.16 77.474375 920.16 77.474375 
z
" style="fill:#ffffff;opacity:0.8;stroke:#cccccc;stroke-linejoin:miter;"/>
    </g>
    <g id="PathCollection_16">
     <g>
      <use style="fill:#7f3c8d;stroke:#7f3c8d;stroke-width:1.5;" x="932.16" xlink:href="#m46ab50b485" y="39.413437"/>
     </g>
    </g>
    <g id="text_64">
     <!-- Generic -->
     <g transform="translate(950.16 42.038437)scale(0.1 -0.1)">
      <use xlink:href="#DejaVuSans-71"/>
      <use x="77.490234" xlink:href="#DejaVuSans-101"/>
      <use x="139.013672" xlink:href="#DejaVuSans-110"/>
      <use x="202.392578" xlink:href="#DejaVuSans-101"/>
      <use x="263.916016" xlink:href="#DejaVuSans-114"/>
      <use x="305.029297" xlink:href="#DejaVuSans-105"/>
      <use x="332.8125" xlink:href="#DejaVuSans-99"/>
     </g>
    </g>
    <g id="PathCollection_17">
     <g>
      <use style="fill:#11a579;stroke:#11a579;stroke-width:1.5;" x="932.16" xlink:href="#mf261e7dfbd" y="54.091563"/>
     </g>
    </g>
    <g id="text_65">
     <!-- NEON -->
     <g transform="translate(950.16 56.716563)scale(0.1 -0.1)">
      <use xlink:href="#DejaVuSans-78"/>
      <use x="74.804688" xlink:href="#DejaVuSans-69"/>
      <use x="137.988281" xlink:href="#DejaVuSans-79"/>
      <use x="216.699219" xlink:href="#DejaVuSans-78"/>
     </g>
    </g>
    <g id="PathCollection_18">
     <g>
      <use style="fill:#3969ac;stroke:#3969ac;stroke-width:1.5;" x="932.16" xlink:href="#m6507050681" y="68.769687"/>
     </g>
    </g>
    <g id="text_66">
     <!-- None -->
     <g transform="translate(950.16 71.394687)scale(0.1 -0.1)">
      <use xlink:href="#DejaVuSans-78"/>
      <use x="74.804688" xlink:href="#DejaVuSans-111"/>
      <use x="135.986328" xlink:href="#DejaVuSans-110"/>
      <use x="199.365234" xlink:href="#DejaVuSans-101"/>
     </g>
    </g>
   </g>
  </g>
 </g>
 <defs>
  <clipPath id="p6290a7e0c2">
   <rect height="364.6" width="372.04" x="54.2" y="25.44"/>
  </clipPath>
  <clipPath id="p4763a7dfcc">
   <rect height="364.6" width="372.04" x="483.68" y="25.44"/>
  </clipPath>
  <clipPath id="p4dae59c7cf">
   <rect height="364.6" width="372.04" x="913.16" y="25.44"/>
  </clipPath>
 </defs>
</svg>
